<?xml version="1.0" encoding="UTF-8"?>
<svg width="1440px" height="1187px" viewBox="0 0 1440 1187" version="1.1" xmlns="http://www.w3.org/2000/svg" xmlns:xlink="http://www.w3.org/1999/xlink">
    <title>Fill 1</title>
    <defs>
        <filter id="filter-1">
            <feColorMatrix in="SourceGraphic" type="matrix" values="0 0 0 0 0.952941 0 0 0 0 0.803922 0 0 0 0 0.768627 0 0 0 1.000000 0"></feColorMatrix>
        </filter>
    </defs>
    <g id="Felixstowe-Chess-Club" stroke="none" stroke-width="1" fill="none" fill-rule="evenodd">
        <g id="Group-3-Copy-2" transform="translate(0.000000, -3278.000000)" filter="url(#filter-1)">
            <g transform="translate(149.000000, 3865.000000) rotate(-266.000000) translate(-149.000000, -3865.000000) translate(-488.000000, 2562.000000)">
                <path d="M1144.98393,313.5167 C1136.22876,251.012539 1126.73785,187.81601 1098.14743,140.639455 C1062.70001,82.1462569 1009.21253,64.3595496 961.375435,49.1751928 C829.1061,7.17946389 693.202265,-5.09217037 558.666886,2.66713145 C438.551792,9.56694137 317.730398,32.4867252 201.853103,85.8229722 C104.354314,130.707549 35.6666677,200.421891 12.3587773,369.71792 C-26.678996,653.206996 35.7108114,935.311336 102.529707,1200.20196 C125.955313,1378.8569 150.190222,1557.27309 175.366864,1735.42666 C201.985534,1924.01351 229.810799,2111.90799 259.03395,2299.46822 C269.010433,2363.47649 276.191147,2434.62332 296.850413,2492.6629 C321.512045,2561.89974 360.461531,2584.46141 407.518749,2595.3483 C551.957039,2628.79686 683.240496,2573.76551 820.630504,2512.71771 C929.989242,2464.15642 1043.4092,2424.90629 1150.22232,2363.16612 C1245.48449,2308.11089 1273.41276,2179.06773 1273.28126,2024.78894 C1273.11847,1833.21774 1260.19907,1639.97531 1247.39739,1449.74111 C1221.9706,1071.66017 1196.91167,684.769448 1144.98393,313.5167 Z" id="Fill-1" fill="#231F20"></path>
            </g>
        </g>
    </g>
</svg>