<?xml version="1.0" encoding="UTF-8"?>
<svg width="184px" height="186px" viewBox="0 0 184 186" version="1.1" xmlns="http://www.w3.org/2000/svg" xmlns:xlink="http://www.w3.org/1999/xlink">
    <title>Group 3 Copy</title>
    <defs>
        <polygon id="path-1" points="0 0 186 0 186 186 0 186"></polygon>
    </defs>
    <g id="Felixstowe-Chess-Club" stroke="none" stroke-width="1" fill="none" fill-rule="evenodd">
        <g id="Home" transform="translate(-430.000000, -718.000000)">
            <g id="Group-3-Copy" transform="translate(430.000000, 718.000000)">
                <mask id="mask-2" fill="white">
                    <use xlink:href="#path-1"></use>
                </mask>
                <g id="Clip-2"></g>
                <path d="M25.2320993,27.23223 C22.0952446,30.369091 19.2497629,33.6844512 16.6536546,37.1258108 L35.1282855,18.6511434 C31.6843077,21.2472568 28.3689541,24.095369 25.2320993,27.23223 L25.2320993,27.23223 Z M50.242938,9.3980597 L7.39796434,52.2404933 C6.84146793,53.3823632 6.31122135,54.534733 5.80197463,55.6923529 L53.6947908,7.80206683 C52.5345482,8.30868957 51.3848057,8.8389372 50.242938,9.3980597 L50.242938,9.3980597 Z M63.0659803,4.28720754 L2.28974729,65.063561 C2.01412406,65.9429321 1.74900077,66.8249281 1.4970024,67.7095492 L65.7119633,3.49708607 C64.824719,3.74645995 63.9453497,4.01158377 63.0659803,4.28720754 L63.0659803,4.28720754 Z M73.4057886,1.66221926 L-0.337860768,75.4060148 C-0.479609854,76.1462615 -0.589859143,76.8943831 -0.713233347,77.6372548 L75.6396492,1.28684594 C74.894154,1.41022039 74.1486588,1.5204699 73.4057886,1.66221926 L73.4057886,1.66221926 Z M82.3911057,0.391724941 L-1.60835257,84.3887246 C-1.66872718,85.0554717 -1.70285196,85.7222187 -1.75010166,86.3889657 L84.3913428,0.249975574 C83.7245971,0.297225363 83.0552264,0.331350211 82.3911057,0.391724941 L82.3911057,0.391724941 Z M90.4970534,0.00026207064 L-1.99976668,92.4973134 C-2.00210003,93.1089357 -1.98635014,93.720558 -1.97847519,94.3321802 L92.3319166,0.0216015945 C91.7202955,0.0111016414 91.1086745,-0.00202329993 90.4970534,0.00026207064 L90.4970534,0.00026207064 Z M97.9388804,0.27097548 L-1.72647681,99.9391552 C-1.6818521,100.516653 -1.65560227,101.09415 -1.60310261,101.671647 L99.6713692,0.396974917 C99.093873,0.344475152 98.5163767,0.315600281 97.9388804,0.27097548 L97.9388804,0.27097548 Z M104.889836,1.03747206 L-0.962606739,106.887499 C-0.881232264,107.420372 -0.78410789,107.947994 -0.694858466,108.478242 L106.47795,1.30522086 C105.947704,1.21597126 105.420082,1.1162217 104.889836,1.03747206 L104.889836,1.03747206 Z M111.378794,2.26334158 L0.263260355,113.37647 C0.37875961,113.885718 0.473259001,114.394966 0.596633205,114.898963 L112.901284,2.59671509 C112.397287,2.47334064 111.885415,2.37621607 111.378794,2.26334158 L111.378794,2.26334158 Z M117.523879,3.83308457 L1.83300023,119.521568 C1.97474932,119.991441 2.14012325,120.458688 2.2871223,120.925936 L118.92562,4.28458255 C118.458373,4.14020819 117.993751,3.97220894 117.523879,3.83308457 L117.523879,3.83308457 Z M123.290967,5.77820087 L3.77811269,125.291292 C3.9461116,125.74279 4.11411052,126.191663 4.2873594,126.640536 L124.640208,6.2874486 C124.193961,6.11157438 123.745089,5.94357514 123.290967,5.77820087 L123.290967,5.77820087 Z M128.779807,8.00681592 L6.00672331,130.777517 C6.19834708,131.208015 6.37159596,131.643764 6.56846969,132.071637 L130.071298,8.56856341 C129.646051,8.3690643 129.207679,8.19844006 128.779807,8.00681592 L128.779807,8.00681592 Z M133.995648,10.5031798 L8.50308221,135.995994 C8.71570584,136.400242 8.9388294,136.796615 9.156703,137.198239 L135.200515,11.1568018 C134.796268,10.9389278 134.399895,10.7131788 133.995648,10.5031798 L133.995648,10.5031798 Z M138.930616,13.2830423 L11.2829393,140.930972 C11.5139378,141.31422 11.7606862,141.692219 11.9969347,142.072842 L140.072484,13.9970392 C139.691861,13.7607902 139.313864,13.5140413 138.930616,13.2830423 L138.930616,13.2830423 Z M143.616211,16.3122788 L14.3147947,145.613951 C14.5667931,145.981449 14.8187915,146.343698 15.0760398,146.708571 L144.708204,17.0761504 C144.345956,16.8189015 143.981083,16.5669027 143.616211,16.3122788 L143.616211,16.3122788 Z M148.065557,19.5777642 L17.5776487,150.065931 C17.8480219,150.415055 18.1105203,150.766803 18.3861435,151.113302 L149.112925,20.3862606 C148.769053,20.1106368 148.41468,19.848138 148.065557,19.5777642 L148.065557,19.5777642 Z M152.29178,23.0663736 L21.0662512,154.292162 C21.3576243,154.622911 21.6306226,154.961534 21.9246207,155.289658 L153.289273,23.9247448 C152.963776,23.6281211 152.622528,23.3577473 152.29178,23.0663736 L152.29178,23.0663736 Z M156.770001,27.23223 L156.294879,26.778107 L24.7806022,158.292644 L25.2320993,158.767767 L25.7072213,159.22189 L157.221498,27.7073529 L156.770001,27.23223 Z M160.07748,30.7103395 L28.7102019,162.077878 C29.0383248,162.371876 29.3795726,162.64225 29.7103204,162.933624 L160.933224,31.71046 C160.644476,31.3797115 160.371478,31.038463 160.07748,30.7103395 L160.07748,30.7103395 Z M163.613332,34.8893208 L32.8891749,165.613737 C33.2330477,165.891985 33.5874204,166.151859 33.9339182,166.422233 L164.421827,35.9340661 C164.154078,35.5875677 163.89158,35.2331943 163.613332,34.8893208 L163.613332,34.8893208 Z M166.926061,39.2914261 L37.2912716,168.923847 C37.6561442,169.181096 38.0210168,169.43572 38.3858895,169.687719 L167.687306,40.3860462 C167.435307,40.0211729 167.183309,39.6562995 166.926061,39.2914261 L166.926061,39.2914261 Z M170.002541,43.9271554 L41.9269917,172.002958 C42.3102392,172.241832 42.6856118,172.485956 43.0688593,172.716955 L170.716536,45.0690253 C170.485538,44.685777 170.241414,44.3077787 170.002541,43.9271554 L170.002541,43.9271554 Z M172.842772,48.8017586 L46.8015852,174.843196 C47.2032076,175.06107 47.5995801,175.286819 48.0038275,175.496818 L173.496393,50.0040033 C173.289019,49.5997551 173.060646,49.2033819 172.842772,48.8017586 L172.842772,48.8017586 Z M175.433631,53.9283607 L51.9281772,177.431434 C52.3560494,177.630933 52.7944216,177.804182 53.2222938,177.993181 L175.995377,55.22248 C175.803753,54.7919819 175.630504,54.3562338 175.433631,53.9283607 L175.433631,53.9283607 Z M177.714741,59.3594615 L57.3592671,179.715174 C57.8081392,179.888423 58.2596363,180.056422 58.7085084,180.221796 L178.223988,60.7060805 C178.055989,60.2572075 177.88799,59.8083345 177.714741,59.3594615 L177.714741,59.3594615 Z M179.714978,65.0740609 L63.0764803,181.715415 C63.5437272,181.862414 64.0083492,182.027788 64.4782212,182.166913 L180.166475,66.4784297 C180.027351,66.0085568 179.861977,65.5439338 179.714978,65.0740609 L179.714978,65.0740609 Z M181.405467,71.098409 L69.1008164,183.403282 C69.6048132,183.526657 70.1166849,183.623781 70.6233066,183.736656 L181.73884,72.6235272 C181.623341,72.1169045 181.528841,71.6050318 181.405467,71.098409 L181.405467,71.098409 Z M182.694334,77.5217553 L75.52415,184.694776 C76.0543966,184.786651 76.5820182,184.883776 77.1122647,184.962525 L182.962082,79.1124982 C182.883333,78.5822506 182.786208,78.052003 182.694334,77.5217553 L182.694334,77.5217553 Z M183.605203,84.3283499 L82.3281061,185.603022 C82.9082274,185.658147 83.4830986,185.684397 84.0632199,185.726397 L183.728577,86.0608422 C183.683952,85.4833448 183.657703,84.9058473 183.605203,84.3283499 L183.605203,84.3283499 Z M183.980576,91.6678171 L89.6675588,185.981021 C90.2818048,185.988896 90.8934259,186.002021 91.5050469,185.999737 L183.99895,93.5053089 C184.0042,92.8936866 183.98845,92.2794394 183.980576,91.6678171 L183.980576,91.6678171 Z M99.6109946,185.608272 L183.607828,101.608648 C183.668203,100.944526 183.704952,100.277779 183.752202,99.6110316 L97.6107575,185.752647 C98.2775032,185.705397 98.9468739,185.668647 99.6109946,185.608272 L99.6109946,185.608272 Z M108.596312,184.337778 L182.337336,110.593983 C182.48171,109.853736 182.591959,109.105614 182.715334,108.362743 L106.362451,184.715776 C107.107946,184.592402 107.856066,184.479527 108.596312,184.337778 L108.596312,184.337778 Z M118.93612,181.710165 L179.712353,120.936436 C179.987976,120.057065 180.2531,119.175069 180.502473,118.287823 L116.290137,182.502911 C117.174756,182.253537 118.056751,181.988414 118.93612,181.710165 L118.93612,181.710165 Z M131.759162,176.604563 L174.604136,133.759504 C175.160632,132.617634 175.690879,131.465264 176.200126,130.307644 L128.30731,178.197931 C129.464927,177.691308 130.617295,177.16106 131.759162,176.604563 L131.759162,176.604563 Z M146.873815,167.346229 L165.348446,148.871562 C162.752337,152.318171 159.906856,155.633531 156.770001,158.767767 C153.633146,161.907253 150.317793,164.752741 146.873815,167.346229 L146.873815,167.346229 Z" id="Fill-1" fill="#F5D7D0" mask="url(#mask-2)"></path>
            </g>
        </g>
    </g>
</svg>