<?xml version="1.0" encoding="UTF-8"?>
<svg width="265px" height="265px" viewBox="0 0 265 265" version="1.1" xmlns="http://www.w3.org/2000/svg" xmlns:xlink="http://www.w3.org/1999/xlink">
    <title>Group 398 Copy 2</title>
    <defs>
        <filter id="filter-1">
            <feColorMatrix in="SourceGraphic" type="matrix" values="0 0 0 0 0.952941 0 0 0 0 0.803922 0 0 0 0 0.768627 0 0 0 1.000000 0"></feColorMatrix>
        </filter>
        <polygon id="path-2" points="0.263334592 0.162 4.69221429 0.162 4.69221429 3.5786 0.263334592 3.5786"></polygon>
        <polygon id="path-4" points="0.593439387 0.192433333 3.17533333 0.192433333 3.17533333 3.8591 0.593439387 3.8591"></polygon>
        <polygon id="path-6" points="0.287678571 0.162 4.72834861 0.162 4.72834861 3.5049 0.287678571 3.5049"></polygon>
        <polygon id="path-8" points="0.548448916 0.2341 3.17533333 0.2341 3.17533333 3.90076667 0.548448916 3.90076667"></polygon>
        <polygon id="path-10" points="0.333333333 0.124151197 3.78293333 0.124151197 3.78293333 4.43803097 0.333333333 4.43803097"></polygon>
        <polygon id="path-12" points="0.288066667 1.36325594 3.95473333 1.36325594 3.95473333 3.92857143 0.288066667 3.92857143"></polygon>
        <polygon id="path-14" points="0.333333333 0.237263575 3.84059167 0.237263575 3.84059167 4.69455261 0.333333333 4.69455261"></polygon>
        <polygon id="path-16" points="0.210466667 0.664333333 3.87713333 0.664333333 3.87713333 3 0.210466667 3"></polygon>
    </defs>
    <g id="Felixstowe-Chess-Club" stroke="none" stroke-width="1" fill="none" fill-rule="evenodd">
        <g filter="url(#filter-1)" id="Group-398-Copy-2">
            <g>
                <path d="M182.413229,14.412844 C183.19559,13.6299694 183.19559,12.3647881 182.413229,11.5819135 C181.630867,10.8060288 180.366514,10.8060288 179.584152,11.5819135 C178.805283,12.3647881 178.805283,13.6299694 179.584152,14.412844 C180.366514,15.1957187 181.630867,15.1957187 182.413229,14.412844" id="Fill-4" fill="#000000"></path>
                <path d="M194.412716,26.4132286 C195.195761,25.6308666 195.195761,24.3665139 194.412716,23.5841519 C193.633166,22.8052827 192.367708,22.8052827 191.584662,23.5841519 C190.805113,24.3665139 190.805113,25.6308666 191.584662,26.4132286 C192.367708,27.1955905 193.633166,27.1955905 194.412716,26.4132286" id="Fill-6" fill="#000000"></path>
                <path d="M206.412844,38.4132286 C207.195719,37.6308666 207.195719,36.3665139 206.412844,35.5841519 C205.629969,34.8052827 204.364788,34.8052827 203.581913,35.5841519 C202.806029,36.3665139 202.806029,37.6308666 203.581913,38.4132286 C204.364788,39.1955905 205.629969,39.1955905 206.412844,38.4132286" id="Fill-8" fill="#000000"></path>
                <path d="M218.413229,50.4127158 C219.19559,49.6331658 219.19559,48.3677081 218.413229,47.5846624 C217.630867,46.8051125 216.366514,46.8051125 215.584152,47.5846624 C214.805283,48.3677081 214.805283,49.6331658 215.584152,50.4127158 C216.366514,51.1957614 217.630867,51.1957614 218.413229,50.4127158" id="Fill-10" fill="#000000"></path>
                <path d="M230.413229,62.412844 C231.19559,61.6299694 231.19559,60.3647881 230.413229,59.5819135 C229.630867,58.8060288 228.366514,58.8060288 227.584152,59.5819135 C226.805283,60.3647881 226.805283,61.6299694 227.584152,62.412844 C228.366514,63.1957187 229.630867,63.1957187 230.413229,62.412844" id="Fill-12" fill="#000000"></path>
                <path d="M242.415465,74.4132286 C243.194845,73.6308666 243.194845,72.3665139 242.415465,71.5841519 C241.632591,70.8052827 240.367409,70.8052827 239.584535,71.5841519 C238.805155,72.3665139 238.805155,73.6308666 239.584535,74.4132286 C240.367409,75.1955905 241.632591,75.1955905 242.415465,74.4132286" id="Fill-14" fill="#000000"></path>
                <path d="M254.412716,86.4132286 C255.195761,85.6308666 255.195761,84.3665139 254.412716,83.5841519 C253.62967,82.8052827 252.364212,82.8052827 251.584662,83.5841519 C250.805113,84.3665139 250.805113,85.6308666 251.584662,86.4132286 C252.364212,87.1955905 253.62967,87.1955905 254.412716,86.4132286" id="Fill-16" fill="#000000"></path>
                <g id="Group-20" transform="translate(142.000000, 0.000000)">
                    <mask id="mask-3" fill="white">
                        <use xlink:href="#path-2"></use>
                    </mask>
                    <g id="Clip-19"></g>
                    <path d="M0.893285714,2.26593333 C1.77328571,3.08726667 3.19542857,3.08726667 4.07542857,2.26593333 C4.4565,1.9066 4.64114286,1.44826667 4.69221429,0.978933333 C3.22685714,0.8286 1.74971429,0.714933333 0.272571429,0.6086 C0.217571429,1.2026 0.406142857,1.81126667 0.893285714,2.26593333" id="Fill-18" fill="#000000" mask="url(#mask-3)"></path>
                </g>
                <path d="M158.413229,14.4154653 C159.19559,13.6325907 159.19559,12.3674093 158.413229,11.5845347 C157.630867,10.8051551 156.366514,10.8051551 155.584152,11.5845347 C154.805283,12.3674093 154.805283,13.6325907 155.584152,14.4154653 C156.366514,15.1948449 157.630867,15.1948449 158.413229,14.4154653" id="Fill-21" fill="#000000"></path>
                <path d="M170.415465,26.4127158 C171.194845,25.6331658 171.194845,24.3642124 170.415465,23.5846624 C169.632591,22.8051125 168.367409,22.8051125 167.584535,23.5846624 C166.805155,24.3642124 166.805155,25.6331658 167.584535,26.4127158 C168.367409,27.1957614 169.632591,27.1957614 170.415465,26.4127158" id="Fill-23" fill="#000000"></path>
                <path d="M182.412844,38.412844 C183.195719,37.6299694 183.195719,36.3647881 182.412844,35.5819135 C181.629969,34.8060288 180.364788,34.8060288 179.581913,35.5819135 C178.806029,36.3647881 178.806029,37.6299694 179.581913,38.412844 C180.364788,39.1957187 181.629969,39.1957187 182.412844,38.412844" id="Fill-25" fill="#000000"></path>
                <path d="M194.413229,50.4132286 C195.19559,49.6308666 195.19559,48.3665139 194.413229,47.5841519 C193.630867,46.8052827 192.366514,46.8052827 191.584152,47.5841519 C190.805283,48.3665139 190.805283,49.6308666 191.584152,50.4132286 C192.366514,51.1955905 193.630867,51.1955905 194.413229,50.4132286" id="Fill-27" fill="#000000"></path>
                <path d="M206.413229,62.4132286 C207.19559,61.6308666 207.19559,60.3665139 206.413229,59.5841519 C205.630867,58.8052827 204.366514,58.8052827 203.584152,59.5841519 C202.805283,60.3665139 202.805283,61.6308666 203.584152,62.4132286 C204.366514,63.1955905 205.630867,63.1955905 206.413229,62.4132286" id="Fill-29" fill="#000000"></path>
                <path d="M218.415465,74.4127158 C219.194845,73.6331658 219.194845,72.3677081 218.415465,71.5846624 C217.632591,70.8051125 216.367409,70.8051125 215.584535,71.5846624 C214.805155,72.3677081 214.805155,73.6331658 215.584535,74.4127158 C216.367409,75.1957614 217.632591,75.1957614 218.415465,74.4127158" id="Fill-31" fill="#000000"></path>
                <path d="M230.412716,86.412844 C231.195761,85.6299694 231.195761,84.3647881 230.412716,83.5819135 C229.62967,82.8060288 228.364212,82.8060288 227.584662,83.5819135 C226.805113,84.3647881 226.805113,85.6299694 227.584662,86.412844 C228.364212,87.1957187 229.62967,87.1957187 230.412716,86.412844" id="Fill-33" fill="#000000"></path>
                <path d="M242.413229,98.4132286 C243.19559,97.6308666 243.19559,96.3665139 242.413229,95.5841519 C241.630867,94.8052827 240.366514,94.8052827 239.584152,95.5841519 C238.805283,96.3665139 238.805283,97.6308666 239.584152,98.4132286 C240.366514,99.1955905 241.630867,99.1955905 242.413229,98.4132286" id="Fill-35" fill="#000000"></path>
                <path d="M254.413229,110.413229 C255.19559,109.630867 255.19559,108.366514 254.413229,107.584152 C253.630867,106.805283 252.366514,106.805283 251.584152,107.584152 C250.805283,108.366514 250.805283,109.630867 251.584152,110.413229 C252.366514,111.19559 253.630867,111.19559 254.413229,110.413229" id="Fill-37" fill="#000000"></path>
                <g id="Group-41" transform="translate(261.000000, 119.000000)">
                    <mask id="mask-5" fill="white">
                        <use xlink:href="#path-4"></use>
                    </mask>
                    <g id="Clip-40"></g>
                    <path d="M2.64623333,3.4081 L2.8149,3.52176667 C2.74156667,2.52443333 2.67923333,1.52343333 2.5839,0.529766667 C1.84323333,1.35476667 1.85056667,2.6161 2.64623333,3.4081" id="Fill-39" fill="#000000" mask="url(#mask-5)"></path>
                </g>
                <g id="Group-44" transform="translate(118.000000, 0.000000)">
                    <mask id="mask-7" fill="white">
                        <use xlink:href="#path-6"></use>
                    </mask>
                    <g id="Clip-43"></g>
                    <path d="M4.10232143,2.20873333 C4.59732143,1.74673333 4.78196429,1.1234 4.71517857,0.5184 C3.23803571,0.613733333 1.75303571,0.698066667 0.287678571,0.8374 C0.315178571,1.33606667 0.515535714,1.8274 0.920178571,2.20873333 C1.80017857,3.03006667 3.22232143,3.03006667 4.10232143,2.20873333" id="Fill-42" fill="#000000" mask="url(#mask-7)"></path>
                </g>
                <path d="M134.413229,14.4132286 C135.19559,13.6308666 135.19559,12.3665139 134.413229,11.5841519 C133.630867,10.8052827 132.366514,10.8052827 131.584152,11.5841519 C130.805283,12.3665139 130.805283,13.6308666 131.584152,14.4132286 C132.366514,15.1955905 133.630867,15.1955905 134.413229,14.4132286" id="Fill-45" fill="#000000"></path>
                <path d="M146.415465,26.4132286 C147.194845,25.6308666 147.194845,24.3665139 146.415465,23.5841519 C145.632591,22.8052827 144.367409,22.8052827 143.584535,23.5841519 C142.805155,24.3665139 142.805155,25.6308666 143.584535,26.4132286 C144.367409,27.1955905 145.632591,27.1955905 146.415465,26.4132286" id="Fill-47" fill="#000000"></path>
                <path d="M158.412716,38.4154653 C159.195761,37.6325907 159.195761,36.3674093 158.412716,35.5845347 C157.62967,34.8051551 156.364212,34.8051551 155.584662,35.5845347 C154.805113,36.3674093 154.805113,37.6325907 155.584662,38.4154653 C156.364212,39.1948449 157.62967,39.1948449 158.412716,38.4154653" id="Fill-49" fill="#000000"></path>
                <path d="M170.413229,50.4127158 C171.19559,49.6296701 171.19559,48.3642124 170.413229,47.5846624 C169.630867,46.8051125 168.366514,46.8051125 167.584152,47.5846624 C166.805283,48.3642124 166.805283,49.6296701 167.584152,50.4127158 C168.366514,51.1957614 169.630867,51.1957614 170.413229,50.4127158" id="Fill-51" fill="#000000"></path>
                <path d="M182.413229,62.4132286 C183.19559,61.6308666 183.19559,60.3665139 182.413229,59.5841519 C181.630867,58.8052827 180.366514,58.8052827 179.584152,59.5841519 C178.805283,60.3665139 178.805283,61.6308666 179.584152,62.4132286 C180.366514,63.1955905 181.630867,63.1955905 182.413229,62.4132286" id="Fill-53" fill="#000000"></path>
                <path d="M194.415465,74.4132286 C195.194845,73.6308666 195.194845,72.3665139 194.415465,71.5841519 C193.632591,70.8052827 192.367409,70.8052827 191.584535,71.5841519 C190.805155,72.3665139 190.805155,73.6308666 191.584535,74.4132286 C192.367409,75.1955905 193.632591,75.1955905 194.415465,74.4132286" id="Fill-55" fill="#000000"></path>
                <path d="M206.412716,86.4154653 C207.195761,85.6325907 207.195761,84.3674093 206.412716,83.5845347 C205.62967,82.8051551 204.364212,82.8051551 203.584662,83.5845347 C202.805113,84.3674093 202.805113,85.6325907 203.584662,86.4154653 C204.364212,87.1948449 205.62967,87.1948449 206.412716,86.4154653" id="Fill-57" fill="#000000"></path>
                <path d="M218.413229,98.4127158 C219.19559,97.6331658 219.19559,96.3642124 218.413229,95.5846624 C217.630867,94.8051125 216.366514,94.8051125 215.584152,95.5846624 C214.805283,96.3642124 214.805283,97.6331658 215.584152,98.4127158 C216.366514,99.1957614 217.630867,99.1957614 218.413229,98.4127158" id="Fill-59" fill="#000000"></path>
                <path d="M230.413229,110.412844 C231.19559,109.629969 231.19559,108.364788 230.413229,107.581913 C229.630867,106.806029 228.366514,106.806029 227.584152,107.581913 C226.805283,108.364788 226.805283,109.629969 227.584152,110.412844 C228.366514,111.195719 229.630867,111.195719 230.413229,110.412844" id="Fill-61" fill="#000000"></path>
                <path d="M242.415465,122.413229 C243.194845,121.630867 243.194845,120.366514 242.415465,119.584152 C241.632591,118.805283 240.367409,118.805283 239.584535,119.584152 C238.805155,120.366514 238.805155,121.630867 239.584535,122.413229 C240.367409,123.19559 241.632591,123.19559 242.415465,122.413229" id="Fill-63" fill="#000000"></path>
                <path d="M254.412716,135.413229 C255.195761,134.630867 255.195761,133.366514 254.412716,132.584152 C253.633166,131.805283 252.364212,131.805283 251.584662,132.584152 C250.805113,133.366514 250.805113,134.630867 251.584662,135.413229 C252.364212,136.19559 253.633166,136.19559 254.412716,135.413229" id="Fill-65" fill="#000000"></path>
                <g id="Group-69" transform="translate(261.000000, 143.000000)">
                    <mask id="mask-9" fill="white">
                        <use xlink:href="#path-8"></use>
                    </mask>
                    <g id="Clip-68"></g>
                    <path d="M2.4277,3.30676667 C2.5157,2.48176667 2.57436667,1.65676667 2.6477,0.8281 C2.01336667,1.52843333 1.9547,2.52576667 2.4277,3.30676667" id="Fill-67" fill="#000000" mask="url(#mask-9)"></path>
                </g>
                <path d="M110.413229,14.4127158 C111.19559,13.6331658 111.19559,12.3677081 110.413229,11.5846624 C109.630867,10.8051125 108.366514,10.8051125 107.584152,11.5846624 C106.805283,12.3677081 106.805283,13.6331658 107.584152,14.4127158 C108.366514,15.1957614 109.630867,15.1957614 110.413229,14.4127158" id="Fill-70" fill="#000000"></path>
                <path d="M122.415465,26.412844 C123.194845,25.6299694 123.194845,24.3647881 122.415465,23.5819135 C121.632591,22.8060288 120.367409,22.8060288 119.584535,23.5819135 C118.805155,24.3647881 118.805155,25.6299694 119.584535,26.412844 C120.367409,27.1957187 121.632591,27.1957187 122.415465,26.412844" id="Fill-72" fill="#000000"></path>
                <path d="M134.412716,38.4132286 C135.195761,37.6308666 135.195761,36.3665139 134.412716,35.5841519 C133.62967,34.8052827 132.364212,34.8052827 131.584662,35.5841519 C130.805113,36.3665139 130.805113,37.6308666 131.584662,38.4132286 C132.364212,39.1955905 133.62967,39.1955905 134.412716,38.4132286" id="Fill-74" fill="#000000"></path>
                <path d="M146.413229,50.4132286 C147.19559,49.6308666 147.19559,48.3665139 146.413229,47.5841519 C145.630867,46.8052827 144.366514,46.8052827 143.584152,47.5841519 C142.805283,48.3665139 142.805283,49.6308666 143.584152,50.4132286 C144.366514,51.1955905 145.630867,51.1955905 146.413229,50.4132286" id="Fill-76" fill="#000000"></path>
                <path d="M158.413229,62.4154653 C159.19559,61.6325907 159.19559,60.3674093 158.413229,59.5845347 C157.630867,58.8051551 156.366514,58.8051551 155.584152,59.5845347 C154.805283,60.3674093 154.805283,61.6325907 155.584152,62.4154653 C156.366514,63.1948449 157.630867,63.1948449 158.413229,62.4154653" id="Fill-78" fill="#000000"></path>
                <path d="M170.415465,74.4127158 C171.194845,73.6296701 171.194845,72.3642124 170.415465,71.5846624 C169.632591,70.8051125 168.367409,70.8051125 167.584535,71.5846624 C166.805155,72.3642124 166.805155,73.6296701 167.584535,74.4127158 C168.367409,75.1957614 169.632591,75.1957614 170.415465,74.4127158" id="Fill-80" fill="#000000"></path>
                <path d="M182.412716,86.4132286 C183.195761,85.6308666 183.195761,84.3665139 182.412716,83.5841519 C181.633166,82.8052827 180.364212,82.8052827 179.584662,83.5841519 C178.805113,84.3665139 178.805113,85.6308666 179.584662,86.4132286 C180.364212,87.1955905 181.633166,87.1955905 182.412716,86.4132286" id="Fill-82" fill="#000000"></path>
                <path d="M194.412844,98.4132286 C195.195719,97.6308666 195.195719,96.3665139 194.412844,95.5841519 C193.629969,94.8052827 192.364788,94.8052827 191.581913,95.5841519 C190.806029,96.3665139 190.806029,97.6308666 191.581913,98.4132286 C192.364788,99.1955905 193.629969,99.1955905 194.412844,98.4132286" id="Fill-84" fill="#000000"></path>
                <path d="M206.413229,110.415465 C207.19559,109.632591 207.19559,108.367409 206.413229,107.584535 C205.630867,106.805155 204.366514,106.805155 203.584152,107.584535 C202.805283,108.367409 202.805283,109.632591 203.584152,110.415465 C204.366514,111.194845 205.630867,111.194845 206.413229,110.415465" id="Fill-86" fill="#000000"></path>
                <path d="M218.413229,122.412716 C219.19559,121.62967 219.19559,120.364212 218.413229,119.584662 C217.630867,118.805113 216.366514,118.805113 215.584152,119.584662 C214.805283,120.364212 214.805283,121.62967 215.584152,122.412716 C216.366514,123.195761 217.630867,123.195761 218.413229,122.412716" id="Fill-88" fill="#000000"></path>
                <path d="M230.412716,134.413229 C231.195761,133.630867 231.195761,132.366514 230.412716,131.584152 C229.633166,130.805283 228.367708,130.805283 227.584662,131.584152 C226.805113,132.366514 226.805113,133.630867 227.584662,134.413229 C228.367708,135.19559 229.633166,135.19559 230.412716,134.413229" id="Fill-90" fill="#000000"></path>
                <path d="M242.412844,146.413229 C243.195719,145.630867 243.195719,144.366514 242.412844,143.584152 C241.629969,142.805283 240.364788,142.805283 239.581913,143.584152 C238.806029,144.366514 238.806029,145.630867 239.581913,146.413229 C240.364788,147.19559 241.629969,147.19559 242.412844,146.413229" id="Fill-92" fill="#000000"></path>
                <path d="M254.413229,158.415465 C255.19559,157.632591 255.19559,156.367409 254.413229,155.584535 C253.630867,154.805155 252.366514,154.805155 251.584152,155.584535 C250.805283,156.367409 250.805283,157.632591 251.584152,158.415465 C252.366514,159.194845 253.630867,159.194845 254.413229,158.415465" id="Fill-94" fill="#000000"></path>
                <path d="M86.4132286,14.4132286 C87.1955905,13.6308666 87.1955905,12.3665139 86.4132286,11.5841519 C85.6308666,10.8052827 84.3665139,10.8052827 83.5841519,11.5841519 C82.8052827,12.3665139 82.8052827,13.6308666 83.5841519,14.4132286 C84.3665139,15.1955905 85.6308666,15.1955905 86.4132286,14.4132286" id="Fill-96" fill="#000000"></path>
                <path d="M98.4154653,26.4132286 C99.1948449,25.6308666 99.1948449,24.3665139 98.4154653,23.5841519 C97.6325907,22.8052827 96.3674093,22.8052827 95.5845347,23.5841519 C94.8051551,24.3665139 94.8051551,25.6308666 95.5845347,26.4132286 C96.3674093,27.1955905 97.6325907,27.1955905 98.4154653,26.4132286" id="Fill-98" fill="#000000"></path>
                <path d="M110.412716,38.4127158 C111.195761,37.6331658 111.195761,36.3677081 110.412716,35.5846624 C109.633166,34.8051125 108.364212,34.8051125 107.584662,35.5846624 C106.805113,36.3677081 106.805113,37.6331658 107.584662,38.4127158 C108.364212,39.1957614 109.633166,39.1957614 110.412716,38.4127158" id="Fill-100" fill="#000000"></path>
                <path d="M122.412844,50.412844 C123.195719,49.6299694 123.195719,48.3647881 122.412844,47.5819135 C121.629969,46.8060288 120.364788,46.8060288 119.581913,47.5819135 C118.806029,48.3647881 118.806029,49.6299694 119.581913,50.412844 C120.364788,51.1957187 121.629969,51.1957187 122.412844,50.412844" id="Fill-102" fill="#000000"></path>
                <path d="M134.413229,62.4132286 C135.19559,61.6308666 135.19559,60.3665139 134.413229,59.5841519 C133.630867,58.8052827 132.366514,58.8052827 131.584152,59.5841519 C130.805283,60.3665139 130.805283,61.6308666 131.584152,62.4132286 C132.366514,63.1955905 133.630867,63.1955905 134.413229,62.4132286" id="Fill-104" fill="#000000"></path>
                <path d="M146.413229,74.4132286 C147.19559,73.6308666 147.19559,72.3665139 146.413229,71.5841519 C145.630867,70.8052827 144.366514,70.8052827 143.584152,71.5841519 C142.805283,72.3665139 142.805283,73.6308666 143.584152,74.4132286 C144.366514,75.1955905 145.630867,75.1955905 146.413229,74.4132286" id="Fill-106" fill="#000000"></path>
                <path d="M158.412716,86.4127158 C159.195761,85.6331658 159.195761,84.3677081 158.412716,83.5846624 C157.633166,82.8051125 156.367708,82.8051125 155.584662,83.5846624 C154.805113,84.3677081 154.805113,85.6331658 155.584662,86.4127158 C156.367708,87.1957614 157.633166,87.1957614 158.412716,86.4127158" id="Fill-108" fill="#000000"></path>
                <path d="M170.412844,98.412844 C171.195719,97.6299694 171.195719,96.3647881 170.412844,95.5819135 C169.629969,94.8060288 168.364788,94.8060288 167.581913,95.5819135 C166.806029,96.3647881 166.806029,97.6299694 167.581913,98.412844 C168.364788,99.1957187 169.629969,99.1957187 170.412844,98.412844" id="Fill-110" fill="#000000"></path>
                <path d="M182.413229,110.413229 C183.19559,109.630867 183.19559,108.366514 182.413229,107.584152 C181.630867,106.805283 180.366514,106.805283 179.584152,107.584152 C178.805283,108.366514 178.805283,109.630867 179.584152,110.413229 C180.366514,111.19559 181.630867,111.19559 182.413229,110.413229" id="Fill-112" fill="#000000"></path>
                <path d="M194.413229,122.413229 C195.19559,121.630867 195.19559,120.366514 194.413229,119.584152 C193.630867,118.805283 192.366514,118.805283 191.584152,119.584152 C190.805283,120.366514 190.805283,121.630867 191.584152,122.413229 C192.366514,123.19559 193.630867,123.19559 194.413229,122.413229" id="Fill-114" fill="#000000"></path>
                <path d="M206.412716,134.415465 C207.195761,133.632591 207.195761,132.367409 206.412716,131.584535 C205.633166,130.805155 204.367708,130.805155 203.584662,131.584535 C202.805113,132.367409 202.805113,133.632591 203.584662,134.415465 C204.367708,135.194845 205.633166,135.194845 206.412716,134.415465" id="Fill-116" fill="#000000"></path>
                <path d="M218.412844,146.412716 C219.195719,145.62967 219.195719,144.364212 218.412844,143.584662 C217.629969,142.805113 216.364788,142.805113 215.581913,143.584662 C214.806029,144.364212 214.806029,145.62967 215.581913,146.412716 C216.364788,147.195761 217.629969,147.195761 218.412844,146.412716" id="Fill-118" fill="#000000"></path>
                <path d="M230.413229,158.413229 C231.19559,157.630867 231.19559,156.366514 230.413229,155.584152 C229.630867,154.805283 228.366514,154.805283 227.584152,155.584152 C226.805283,156.366514 226.805283,157.630867 227.584152,158.413229 C228.366514,159.19559 229.630867,159.19559 230.413229,158.413229" id="Fill-120" fill="#000000"></path>
                <path d="M242.413229,170.413229 C243.19559,169.630867 243.19559,168.366514 242.413229,167.584152 C241.630867,166.805283 240.366514,166.805283 239.584152,167.584152 C238.805283,168.366514 238.805283,169.630867 239.584152,170.413229 C240.366514,171.19559 241.630867,171.19559 242.413229,170.413229" id="Fill-122" fill="#000000"></path>
                <path d="M251.629213,179.589232 C250.790262,180.374874 250.790262,181.644529 251.629213,182.430171 C252.220974,182.98433 253.071161,183.124623 253.812734,182.893139 C254.228464,181.963696 254.610487,181.013209 255,180.073244 L254.662921,179.589232 C253.82397,178.803589 252.468165,178.803589 251.629213,179.589232" id="Fill-124" fill="#000000"></path>
                <path d="M74.4132286,26.412844 C75.1955905,25.6299694 75.1955905,24.3647881 74.4132286,23.5819135 C73.6308666,22.8060288 72.3665139,22.8060288 71.5841519,23.5819135 C70.8052827,24.3647881 70.8052827,25.6299694 71.5841519,26.412844 C72.3665139,27.1957187 73.6308666,27.1957187 74.4132286,26.412844" id="Fill-126" fill="#000000"></path>
                <path d="M86.4127158,38.4132286 C87.1957614,37.6308666 87.1957614,36.3665139 86.4127158,35.5841519 C85.6331658,34.8052827 84.3677081,34.8052827 83.5846624,35.5841519 C82.8051125,36.3665139 82.8051125,37.6308666 83.5846624,38.4132286 C84.3677081,39.1955905 85.6331658,39.1955905 86.4127158,38.4132286" id="Fill-128" fill="#000000"></path>
                <path d="M98.412844,50.4154653 C99.1957187,49.6325907 99.1957187,48.3674093 98.412844,47.5845347 C97.6299694,46.8051551 96.3647881,46.8051551 95.5819135,47.5845347 C94.8060288,48.3674093 94.8060288,49.6325907 95.5819135,50.4154653 C96.3647881,51.1948449 97.6299694,51.1948449 98.412844,50.4154653" id="Fill-130" fill="#000000"></path>
                <path d="M110.413229,62.4127158 C111.19559,61.6331658 111.19559,60.3642124 110.413229,59.5846624 C109.630867,58.8051125 108.366514,58.8051125 107.584152,59.5846624 C106.805283,60.3642124 106.805283,61.6331658 107.584152,62.4127158 C108.366514,63.1957614 109.630867,63.1957614 110.413229,62.4127158" id="Fill-132" fill="#000000"></path>
                <path d="M122.413229,74.412844 C123.19559,73.6299694 123.19559,72.3647881 122.413229,71.5819135 C121.630867,70.8060288 120.366514,70.8060288 119.584152,71.5819135 C118.805283,72.3647881 118.805283,73.6299694 119.584152,74.412844 C120.366514,75.1957187 121.630867,75.1957187 122.413229,74.412844" id="Fill-134" fill="#000000"></path>
                <path d="M134.412716,86.4132286 C135.195761,85.6308666 135.195761,84.3665139 134.412716,83.5841519 C133.633166,82.8052827 132.367708,82.8052827 131.584662,83.5841519 C130.805113,84.3665139 130.805113,85.6308666 131.584662,86.4132286 C132.367708,87.1955905 133.633166,87.1955905 134.412716,86.4132286" id="Fill-136" fill="#000000"></path>
                <path d="M146.412844,98.4132286 C147.195719,97.6308666 147.195719,96.3665139 146.412844,95.5841519 C145.629969,94.8052827 144.364788,94.8052827 143.581913,95.5841519 C142.806029,96.3665139 142.806029,97.6308666 143.581913,98.4132286 C144.364788,99.1955905 145.629969,99.1955905 146.412844,98.4132286" id="Fill-138" fill="#000000"></path>
                <path d="M158.413229,110.412716 C159.19559,109.633166 159.19559,108.367708 158.413229,107.584662 C157.630867,106.805113 156.366514,106.805113 155.584152,107.584662 C154.805283,108.367708 154.805283,109.633166 155.584152,110.412716 C156.366514,111.195761 157.630867,111.195761 158.413229,110.412716" id="Fill-140" fill="#000000"></path>
                <path d="M170.413229,122.412844 C171.19559,121.629969 171.19559,120.364788 170.413229,119.581913 C169.630867,118.806029 168.366514,118.806029 167.584152,119.581913 C166.805283,120.364788 166.805283,121.629969 167.584152,122.412844 C168.366514,123.195719 169.630867,123.195719 170.413229,122.412844" id="Fill-142" fill="#000000"></path>
                <path d="M182.415465,134.413229 C183.194845,133.630867 183.194845,132.366514 182.415465,131.584152 C181.632591,130.805283 180.367409,130.805283 179.584535,131.584152 C178.805155,132.366514 178.805155,133.630867 179.584535,134.413229 C180.367409,135.19559 181.632591,135.19559 182.415465,134.413229" id="Fill-144" fill="#000000"></path>
                <path d="M194.412716,146.413229 C195.195761,145.630867 195.195761,144.366514 194.412716,143.584152 C193.62967,142.805283 192.364212,142.805283 191.584662,143.584152 C190.805113,144.366514 190.805113,145.630867 191.584662,146.413229 C192.364212,147.19559 193.62967,147.19559 194.412716,146.413229" id="Fill-146" fill="#000000"></path>
                <path d="M206.413229,158.412716 C207.19559,157.633166 207.19559,156.367708 206.413229,155.584662 C205.630867,154.805113 204.366514,154.805113 203.584152,155.584662 C202.805283,156.367708 202.805283,157.633166 203.584152,158.412716 C204.366514,159.195761 205.630867,159.195761 206.413229,158.412716" id="Fill-148" fill="#000000"></path>
                <path d="M218.413229,170.412844 C219.19559,169.629969 219.19559,168.364788 218.413229,167.581913 C217.630867,166.806029 216.366514,166.806029 215.584152,167.581913 C214.805283,168.364788 214.805283,169.629969 215.584152,170.412844 C216.366514,171.195719 217.630867,171.195719 218.413229,170.412844" id="Fill-150" fill="#000000"></path>
                <path d="M231.415465,182.413229 C232.194845,181.630867 232.194845,180.366514 231.415465,179.584152 C230.632591,178.805283 229.367409,178.805283 228.584535,179.584152 C227.805155,180.366514 227.805155,181.630867 228.584535,182.413229 C229.367409,183.19559 230.632591,183.19559 231.415465,182.413229" id="Fill-152" fill="#000000"></path>
                <path d="M239.587284,191.586771 C238.804239,192.369133 238.804239,193.633486 239.587284,194.415848 C240.366834,195.194717 241.632292,195.194717 242.415338,194.415848 C243.194887,193.633486 243.194887,192.369133 242.415338,191.586771 C241.632292,190.80441 240.366834,190.80441 239.587284,191.586771" id="Fill-154" fill="#000000"></path>
                <path d="M62.4127158,38.4127158 C63.1957614,37.6296701 63.1957614,36.3642124 62.4127158,35.5846624 C61.6331658,34.8051125 60.3677081,34.8051125 59.5846624,35.5846624 C58.8051125,36.3642124 58.8051125,37.6296701 59.5846624,38.4127158 C60.3677081,39.1957614 61.6331658,39.1957614 62.4127158,38.4127158" id="Fill-156" fill="#000000"></path>
                <path d="M74.412844,50.4132286 C75.1957187,49.6308666 75.1957187,48.3665139 74.412844,47.5841519 C73.6299694,46.8052827 72.3647881,46.8052827 71.5819135,47.5841519 C70.8060288,48.3665139 70.8060288,49.6308666 71.5819135,50.4132286 C72.3647881,51.1955905 73.6299694,51.1955905 74.412844,50.4132286" id="Fill-158" fill="#000000"></path>
                <path d="M86.4132286,62.4132286 C87.1955905,61.6308666 87.1955905,60.3665139 86.4132286,59.5841519 C85.6308666,58.8052827 84.3665139,58.8052827 83.5841519,59.5841519 C82.8052827,60.3665139 82.8052827,61.6308666 83.5841519,62.4132286 C84.3665139,63.1955905 85.6308666,63.1955905 86.4132286,62.4132286" id="Fill-160" fill="#000000"></path>
                <path d="M98.4132286,74.4154653 C99.1955905,73.6325907 99.1955905,72.3674093 98.4132286,71.5845347 C97.6308666,70.8051551 96.3665139,70.8051551 95.5841519,71.5845347 C94.8052827,72.3674093 94.8052827,73.6325907 95.5841519,74.4154653 C96.3665139,75.1948449 97.6308666,75.1948449 98.4132286,74.4154653" id="Fill-162" fill="#000000"></path>
                <path d="M110.415465,86.4127158 C111.194845,85.6331658 111.194845,84.3642124 110.415465,83.5846624 C109.632591,82.8051125 108.367409,82.8051125 107.584535,83.5846624 C106.805155,84.3642124 106.805155,85.6331658 107.584535,86.4127158 C108.367409,87.1957614 109.632591,87.1957614 110.415465,86.4127158" id="Fill-164" fill="#000000"></path>
                <path d="M122.412716,98.412844 C123.195761,97.6299694 123.195761,96.3647881 122.412716,95.5819135 C121.62967,94.8060288 120.364212,94.8060288 119.584662,95.5819135 C118.805113,96.3647881 118.805113,97.6299694 119.584662,98.412844 C120.364212,99.1957187 121.62967,99.1957187 122.412716,98.412844" id="Fill-166" fill="#000000"></path>
                <path d="M134.413229,110.413229 C135.19559,109.630867 135.19559,108.366514 134.413229,107.584152 C133.630867,106.805283 132.366514,106.805283 131.584152,107.584152 C130.805283,108.366514 130.805283,109.630867 131.584152,110.413229 C132.366514,111.19559 133.630867,111.19559 134.413229,110.413229" id="Fill-168" fill="#000000"></path>
                <path d="M146.413229,122.415465 C147.19559,121.632591 147.19559,120.367409 146.413229,119.584535 C145.630867,118.805155 144.366514,118.805155 143.584152,119.584535 C142.805283,120.367409 142.805283,121.632591 143.584152,122.415465 C144.366514,123.194845 145.630867,123.194845 146.413229,122.415465" id="Fill-170" fill="#000000"></path>
                <path d="M158.415465,134.412716 C159.194845,133.633166 159.194845,132.364212 158.415465,131.584662 C157.632591,130.805113 156.367409,130.805113 155.584535,131.584662 C154.805155,132.364212 154.805155,133.633166 155.584535,134.412716 C156.367409,135.195761 157.632591,135.195761 158.415465,134.412716" id="Fill-172" fill="#000000"></path>
                <path d="M170.412716,146.412844 C171.195761,145.629969 171.195761,144.364788 170.412716,143.581913 C169.62967,142.806029 168.364212,142.806029 167.584662,143.581913 C166.805113,144.364788 166.805113,145.629969 167.584662,146.412844 C168.364212,147.195719 169.62967,147.195719 170.412716,146.412844" id="Fill-174" fill="#000000"></path>
                <path d="M182.413229,158.413229 C183.19559,157.630867 183.19559,156.366514 182.413229,155.584152 C181.630867,154.805283 180.366514,154.805283 179.584152,155.584152 C178.805283,156.366514 178.805283,157.630867 179.584152,158.413229 C180.366514,159.19559 181.630867,159.19559 182.413229,158.413229" id="Fill-176" fill="#000000"></path>
                <path d="M194.413229,170.413229 C195.19559,169.630867 195.19559,168.366514 194.413229,167.584152 C193.630867,166.805283 192.366514,166.805283 191.584152,167.584152 C190.805283,168.366514 190.805283,169.630867 191.584152,170.413229 C192.366514,171.19559 193.630867,171.19559 194.413229,170.413229" id="Fill-178" fill="#000000"></path>
                <path d="M206.415465,182.412716 C207.194845,181.633166 207.194845,180.367708 206.415465,179.584662 C205.632591,178.805113 204.367409,178.805113 203.584535,179.584662 C202.805155,180.367708 202.805155,181.633166 203.584535,182.412716 C204.367409,183.195761 205.632591,183.195761 206.415465,182.412716" id="Fill-180" fill="#000000"></path>
                <path d="M218.412716,194.412844 C219.195761,193.629969 219.195761,192.364788 218.412716,191.581913 C217.633166,190.806029 216.364212,190.806029 215.584662,191.581913 C214.805113,192.364788 214.805113,193.629969 215.584662,194.412844 C216.364212,195.195719 217.633166,195.195719 218.412716,194.412844" id="Fill-182" fill="#000000"></path>
                <path d="M228.584535,203.586771 C227.805155,204.369133 227.805155,205.633486 228.584535,206.415848 C229.367409,207.194717 230.632591,207.194717 231.415465,206.415848 C232.194845,205.633486 232.194845,204.369133 231.415465,203.586771 C230.632591,202.80441 229.367409,202.80441 228.584535,203.586771" id="Fill-184" fill="#000000"></path>
                <path d="M50.4127158,50.4154653 C51.1957614,49.6325907 51.1957614,48.3674093 50.4127158,47.5845347 C49.6296701,46.8051551 48.3642124,46.8051551 47.5846624,47.5845347 C46.8051125,48.3674093 46.8051125,49.6325907 47.5846624,50.4154653 C48.3642124,51.1948449 49.6296701,51.1948449 50.4127158,50.4154653" id="Fill-186" fill="#000000"></path>
                <path d="M62.4132286,62.4127158 C63.1955905,61.6296701 63.1955905,60.3642124 62.4132286,59.5846624 C61.6308666,58.8051125 60.3665139,58.8051125 59.5841519,59.5846624 C58.8052827,60.3642124 58.8052827,61.6296701 59.5841519,62.4127158 C60.3665139,63.1957614 61.6308666,63.1957614 62.4132286,62.4127158" id="Fill-188" fill="#000000"></path>
                <path d="M74.4132286,74.4132286 C75.1955905,73.6308666 75.1955905,72.3665139 74.4132286,71.5841519 C73.6308666,70.8052827 72.3665139,70.8052827 71.5841519,71.5841519 C70.8052827,72.3665139 70.8052827,73.6308666 71.5841519,74.4132286 C72.3665139,75.1955905 73.6308666,75.1955905 74.4132286,74.4132286" id="Fill-190" fill="#000000"></path>
                <path d="M86.4154653,86.4132286 C87.1948449,85.6308666 87.1948449,84.3665139 86.4154653,83.5841519 C85.6325907,82.8052827 84.3674093,82.8052827 83.5845347,83.5841519 C82.8051551,84.3665139 82.8051551,85.6308666 83.5845347,86.4132286 C84.3674093,87.1955905 85.6325907,87.1955905 86.4154653,86.4132286" id="Fill-192" fill="#000000"></path>
                <path d="M98.4127158,98.4154653 C99.1957614,97.6325907 99.1957614,96.3674093 98.4127158,95.5845347 C97.6296701,94.8051551 96.3642124,94.8051551 95.5846624,95.5845347 C94.8051125,96.3674093 94.8051125,97.6325907 95.5846624,98.4154653 C96.3642124,99.1948449 97.6296701,99.1948449 98.4127158,98.4154653" id="Fill-194" fill="#000000"></path>
                <path d="M110.413229,110.412716 C111.19559,109.62967 111.19559,108.364212 110.413229,107.584662 C109.630867,106.805113 108.366514,106.805113 107.584152,107.584662 C106.805283,108.364212 106.805283,109.62967 107.584152,110.412716 C108.366514,111.195761 109.630867,111.195761 110.413229,110.412716" id="Fill-196" fill="#000000"></path>
                <path d="M122.413229,122.413229 C123.19559,121.630867 123.19559,120.366514 122.413229,119.584152 C121.630867,118.805283 120.366514,118.805283 119.584152,119.584152 C118.805283,120.366514 118.805283,121.630867 119.584152,122.413229 C120.366514,123.19559 121.630867,123.19559 122.413229,122.413229" id="Fill-198" fill="#000000"></path>
                <path d="M134.415465,134.413229 C135.194845,133.630867 135.194845,132.366514 134.415465,131.584152 C133.632591,130.805283 132.367409,130.805283 131.584535,131.584152 C130.805155,132.366514 130.805155,133.630867 131.584535,134.413229 C132.367409,135.19559 133.632591,135.19559 134.415465,134.413229" id="Fill-200" fill="#000000"></path>
                <path d="M146.412716,146.415465 C147.195761,145.632591 147.195761,144.367409 146.412716,143.584535 C145.633166,142.805155 144.364212,142.805155 143.584662,143.584535 C142.805113,144.367409 142.805113,145.632591 143.584662,146.415465 C144.364212,147.194845 145.633166,147.194845 146.412716,146.415465" id="Fill-202" fill="#000000"></path>
                <path d="M158.412844,158.412716 C159.195719,157.633166 159.195719,156.364212 158.412844,155.584662 C157.629969,154.805113 156.364788,154.805113 155.581913,155.584662 C154.806029,156.364212 154.806029,157.633166 155.581913,158.412716 C156.364788,159.195761 157.629969,159.195761 158.412844,158.412716" id="Fill-204" fill="#000000"></path>
                <path d="M170.413229,170.412844 C171.19559,169.629969 171.19559,168.364788 170.413229,167.581913 C169.630867,166.806029 168.366514,166.806029 167.584152,167.581913 C166.805283,168.364788 166.805283,169.629969 167.584152,170.412844 C168.366514,171.195719 169.630867,171.195719 170.413229,170.412844" id="Fill-206" fill="#000000"></path>
                <path d="M182.413229,182.413229 C183.19559,181.630867 183.19559,180.366514 182.413229,179.584152 C181.630867,178.805283 180.366514,178.805283 179.584152,179.584152 C178.805283,180.366514 178.805283,181.630867 179.584152,182.413229 C180.366514,183.19559 181.630867,183.19559 182.413229,182.413229" id="Fill-208" fill="#000000"></path>
                <path d="M194.412716,194.413229 C195.195761,193.630867 195.195761,192.366514 194.412716,191.584152 C193.633166,190.805283 192.367708,190.805283 191.584662,191.584152 C190.805113,192.366514 190.805113,193.630867 191.584662,194.413229 C192.367708,195.19559 193.633166,195.19559 194.412716,194.413229" id="Fill-210" fill="#000000"></path>
                <path d="M206.412844,206.412716 C207.195719,205.633166 207.195719,204.364212 206.412844,203.584662 C205.629969,202.805113 204.364788,202.805113 203.581913,203.584662 C202.806029,204.364212 202.806029,205.633166 203.581913,206.412716 C204.364788,207.195761 205.629969,207.195761 206.412844,206.412716" id="Fill-212" fill="#000000"></path>
                <path d="M215.586771,215.584535 C214.80441,216.367409 214.80441,217.632591 215.586771,218.415465 C216.369133,219.194845 217.633486,219.194845 218.415848,218.415465 C219.194717,217.632591 219.194717,216.367409 218.415848,215.584535 C217.633486,214.805155 216.369133,214.805155 215.586771,215.584535" id="Fill-214" fill="#000000"></path>
                <path d="M38.4132286,62.4132286 C39.1955905,61.6308666 39.1955905,60.3665139 38.4132286,59.5841519 C37.6308666,58.8052827 36.3665139,58.8052827 35.5841519,59.5841519 C34.8052827,60.3665139 34.8052827,61.6308666 35.5841519,62.4132286 C36.3665139,63.1955905 37.6308666,63.1955905 38.4132286,62.4132286" id="Fill-216" fill="#000000"></path>
                <path d="M50.4132286,74.4127158 C51.1955905,73.6331658 51.1955905,72.3677081 50.4132286,71.5846624 C49.6308666,70.8051125 48.3665139,70.8051125 47.5841519,71.5846624 C46.8052827,72.3677081 46.8052827,73.6331658 47.5841519,74.4127158 C48.3665139,75.1957614 49.6308666,75.1957614 50.4132286,74.4127158" id="Fill-218" fill="#000000"></path>
                <path d="M62.4154653,85.412844 C63.1948449,84.6299694 63.1948449,83.3647881 62.4154653,82.5819135 C61.6325907,81.8060288 60.3674093,81.8060288 59.5845347,82.5819135 C58.8051551,83.3647881 58.8051551,84.6299694 59.5845347,85.412844 C60.3674093,86.1957187 61.6325907,86.1957187 62.4154653,85.412844" id="Fill-220" fill="#000000"></path>
                <path d="M74.4127158,98.4132286 C75.1957614,97.6308666 75.1957614,96.3665139 74.4127158,95.5841519 C73.6331658,94.8052827 72.3642124,94.8052827 71.5846624,95.5841519 C70.8051125,96.3665139 70.8051125,97.6308666 71.5846624,98.4132286 C72.3642124,99.1955905 73.6331658,99.1955905 74.4127158,98.4132286" id="Fill-222" fill="#000000"></path>
                <path d="M86.412844,110.413229 C87.1957187,109.630867 87.1957187,108.366514 86.412844,107.584152 C85.6299694,106.805283 84.3647881,106.805283 83.5819135,107.584152 C82.8060288,108.366514 82.8060288,109.630867 83.5819135,110.413229 C84.3647881,111.19559 85.6299694,111.19559 86.412844,110.413229" id="Fill-224" fill="#000000"></path>
                <path d="M98.4132286,122.415465 C99.1955905,121.632591 99.1955905,120.367409 98.4132286,119.584535 C97.6308666,118.805155 96.3665139,118.805155 95.5841519,119.584535 C94.8052827,120.367409 94.8052827,121.632591 95.5841519,122.415465 C96.3665139,123.194845 97.6308666,123.194845 98.4132286,122.415465" id="Fill-226" fill="#000000"></path>
                <path d="M110.413229,134.412716 C111.19559,133.62967 111.19559,132.364212 110.413229,131.584662 C109.630867,130.805113 108.366514,130.805113 107.584152,131.584662 C106.805283,132.364212 106.805283,133.62967 107.584152,134.412716 C108.366514,135.195761 109.630867,135.195761 110.413229,134.412716" id="Fill-228" fill="#000000"></path>
                <path d="M122.412716,146.413229 C123.195761,145.630867 123.195761,144.366514 122.412716,143.584152 C121.633166,142.805283 120.367708,142.805283 119.584662,143.584152 C118.805113,144.366514 118.805113,145.630867 119.584662,146.413229 C120.367708,147.19559 121.633166,147.19559 122.412716,146.413229" id="Fill-230" fill="#000000"></path>
                <path d="M135.412844,158.413229 C136.195719,157.630867 136.195719,156.366514 135.412844,155.584152 C134.629969,154.805283 133.364788,154.805283 132.581913,155.584152 C131.806029,156.366514 131.806029,157.630867 132.581913,158.413229 C133.364788,159.19559 134.629969,159.19559 135.412844,158.413229" id="Fill-232" fill="#000000"></path>
                <path d="M146.413229,170.415465 C147.19559,169.632591 147.19559,168.367409 146.413229,167.584535 C145.630867,166.805155 144.366514,166.805155 143.584152,167.584535 C142.805283,168.367409 142.805283,169.632591 143.584152,170.415465 C144.366514,171.194845 145.630867,171.194845 146.413229,170.415465" id="Fill-234" fill="#000000"></path>
                <path d="M158.413229,182.412716 C159.19559,181.62967 159.19559,180.364212 158.413229,179.584662 C157.630867,178.805113 156.366514,178.805113 155.584152,179.584662 C154.805283,180.364212 154.805283,181.62967 155.584152,182.412716 C156.366514,183.195761 157.630867,183.195761 158.413229,182.412716" id="Fill-236" fill="#000000"></path>
                <path d="M171.412716,194.413229 C172.195761,193.630867 172.195761,192.366514 171.412716,191.584152 C170.633166,190.805283 169.367708,190.805283 168.584662,191.584152 C167.805113,192.366514 167.805113,193.630867 168.584662,194.413229 C169.367708,195.19559 170.633166,195.19559 171.412716,194.413229" id="Fill-238" fill="#000000"></path>
                <path d="M182.412844,206.413229 C183.195719,205.630867 183.195719,204.366514 182.412844,203.584152 C181.629969,202.805283 180.364788,202.805283 179.581913,203.584152 C178.806029,204.366514 178.806029,205.630867 179.581913,206.413229 C180.364788,207.19559 181.629969,207.19559 182.412844,206.413229" id="Fill-240" fill="#000000"></path>
                <path d="M194.413229,218.415465 C195.19559,217.632591 195.19559,216.367409 194.413229,215.584535 C193.630867,214.805155 192.366514,214.805155 191.584152,215.584535 C190.805283,216.367409 190.805283,217.632591 191.584152,218.415465 C192.366514,219.194845 193.630867,219.194845 194.413229,218.415465" id="Fill-242" fill="#000000"></path>
                <path d="M204.586771,227.587284 C203.80441,228.366834 203.80441,229.635788 204.586771,230.415338 C205.369133,231.194887 206.633486,231.194887 207.415848,230.415338 C208.194717,229.635788 208.194717,228.366834 207.415848,227.587284 C206.633486,226.804239 205.369133,226.804239 204.586771,227.587284" id="Fill-244" fill="#000000"></path>
                <path d="M26.4132286,74.4132286 C27.1955905,73.6308666 27.1955905,72.3665139 26.4132286,71.5841519 C25.6308666,70.8052827 24.3665139,70.8052827 23.5841519,71.5841519 C22.8052827,72.3665139 22.8052827,73.6308666 23.5841519,74.4132286 C24.3665139,75.1955905 25.6308666,75.1955905 26.4132286,74.4132286" id="Fill-246" fill="#000000"></path>
                <path d="M38.4132286,85.4132286 C39.1955905,84.6308666 39.1955905,83.3665139 38.4132286,82.5841519 C37.6308666,81.8052827 36.3665139,81.8052827 35.5841519,82.5841519 C34.8052827,83.3665139 34.8052827,84.6308666 35.5841519,85.4132286 C36.3665139,86.1955905 37.6308666,86.1955905 38.4132286,85.4132286" id="Fill-248" fill="#000000"></path>
                <path d="M50.4127158,98.4127158 C51.1957614,97.6331658 51.1957614,96.3677081 50.4127158,95.5846624 C49.6331658,94.8051125 48.3677081,94.8051125 47.5846624,95.5846624 C46.8051125,96.3677081 46.8051125,97.6331658 47.5846624,98.4127158 C48.3677081,99.1957614 49.6331658,99.1957614 50.4127158,98.4127158" id="Fill-250" fill="#000000"></path>
                <path d="M62.412844,110.412844 C63.1957187,109.629969 63.1957187,108.364788 62.412844,107.581913 C61.6299694,106.806029 60.3647881,106.806029 59.5819135,107.581913 C58.8060288,108.364788 58.8060288,109.629969 59.5819135,110.412844 C60.3647881,111.195719 61.6299694,111.195719 62.412844,110.412844" id="Fill-252" fill="#000000"></path>
                <path d="M74.4132286,122.413229 C75.1955905,121.630867 75.1955905,120.366514 74.4132286,119.584152 C73.6308666,118.805283 72.3665139,118.805283 71.5841519,119.584152 C70.8052827,120.366514 70.8052827,121.630867 71.5841519,122.413229 C72.3665139,123.19559 73.6308666,123.19559 74.4132286,122.413229" id="Fill-254" fill="#000000"></path>
                <path d="M86.4132286,134.413229 C87.1955905,133.630867 87.1955905,132.366514 86.4132286,131.584152 C85.6308666,130.805283 84.3665139,130.805283 83.5841519,131.584152 C82.8052827,132.366514 82.8052827,133.630867 83.5841519,134.413229 C84.3665139,135.19559 85.6308666,135.19559 86.4132286,134.413229" id="Fill-256" fill="#000000"></path>
                <path d="M98.4127158,146.412716 C99.1957614,145.633166 99.1957614,144.367708 98.4127158,143.584662 C97.6331658,142.805113 96.3677081,142.805113 95.5846624,143.584662 C94.8051125,144.367708 94.8051125,145.633166 95.5846624,146.412716 C96.3677081,147.195761 97.6331658,147.195761 98.4127158,146.412716" id="Fill-258" fill="#000000"></path>
                <path d="M110.412844,158.412844 C111.195719,157.629969 111.195719,156.364788 110.412844,155.581913 C109.629969,154.806029 108.364788,154.806029 107.581913,155.581913 C106.806029,156.364788 106.806029,157.629969 107.581913,158.412844 C108.364788,159.195719 109.629969,159.195719 110.412844,158.412844" id="Fill-260" fill="#000000"></path>
                <path d="M122.413229,170.413229 C123.19559,169.630867 123.19559,168.366514 122.413229,167.584152 C121.630867,166.805283 120.366514,166.805283 119.584152,167.584152 C118.805283,168.366514 118.805283,169.630867 119.584152,170.413229 C120.366514,171.19559 121.630867,171.19559 122.413229,170.413229" id="Fill-262" fill="#000000"></path>
                <path d="M135.413229,182.413229 C136.19559,181.630867 136.19559,180.366514 135.413229,179.584152 C134.630867,178.805283 133.366514,178.805283 132.584152,179.584152 C131.805283,180.366514 131.805283,181.630867 132.584152,182.413229 C133.366514,183.19559 134.630867,183.19559 135.413229,182.413229" id="Fill-264" fill="#000000"></path>
                <path d="M146.415465,194.415465 C147.194845,193.632591 147.194845,192.367409 146.415465,191.584535 C145.632591,190.805155 144.367409,190.805155 143.584535,191.584535 C142.805155,192.367409 142.805155,193.632591 143.584535,194.415465 C144.367409,195.194845 145.632591,195.194845 146.415465,194.415465" id="Fill-266" fill="#000000"></path>
                <path d="M158.412716,206.412716 C159.195761,205.62967 159.195761,204.364212 158.412716,203.584662 C157.62967,202.805113 156.364212,202.805113 155.584662,203.584662 C154.805113,204.364212 154.805113,205.62967 155.584662,206.412716 C156.364212,207.195761 157.62967,207.195761 158.412716,206.412716" id="Fill-268" fill="#000000"></path>
                <path d="M171.413229,218.413229 C172.19559,217.630867 172.19559,216.366514 171.413229,215.584152 C170.630867,214.805283 169.366514,214.805283 168.584152,215.584152 C167.805283,216.366514 167.805283,217.630867 168.584152,218.413229 C169.366514,219.19559 170.630867,219.19559 171.413229,218.413229" id="Fill-270" fill="#000000"></path>
                <path d="M179.586771,227.586771 C178.80441,228.369133 178.80441,229.633486 179.586771,230.415848 C180.369133,231.194717 181.633486,231.194717 182.415848,230.415848 C183.194717,229.633486 183.194717,228.369133 182.415848,227.586771 C181.633486,226.80441 180.369133,226.80441 179.586771,227.586771" id="Fill-272" fill="#000000"></path>
                <path d="M191.587156,239.587156 C190.804281,240.370031 190.804281,241.635212 191.587156,242.418087 C192.370031,243.193971 193.635212,243.193971 194.418087,242.418087 C195.193971,241.635212 195.193971,240.370031 194.418087,239.587156 C193.635212,238.804281 192.370031,238.804281 191.587156,239.587156" id="Fill-274" fill="#000000"></path>
                <path d="M14.4132286,85.4132286 C15.1955905,84.6308666 15.1955905,83.3665139 14.4132286,82.5841519 C13.6308666,81.8052827 12.3665139,81.8052827 11.5841519,82.5841519 C10.8052827,83.3665139 10.8052827,84.6308666 11.5841519,85.4132286 C12.3665139,86.1955905 13.6308666,86.1955905 14.4132286,85.4132286" id="Fill-276" fill="#000000"></path>
                <path d="M26.4127158,98.4132286 C27.1957614,97.6308666 27.1957614,96.3665139 26.4127158,95.5841519 C25.6331658,94.8052827 24.3677081,94.8052827 23.5846624,95.5841519 C22.8051125,96.3665139 22.8051125,97.6308666 23.5846624,98.4132286 C24.3677081,99.1955905 25.6331658,99.1955905 26.4127158,98.4132286" id="Fill-278" fill="#000000"></path>
                <path d="M38.412844,110.415465 C39.1957187,109.632591 39.1957187,108.367409 38.412844,107.584535 C37.6299694,106.805155 36.3647881,106.805155 35.5819135,107.584535 C34.8060288,108.367409 34.8060288,109.632591 35.5819135,110.415465 C36.3647881,111.194845 37.6299694,111.194845 38.412844,110.415465" id="Fill-280" fill="#000000"></path>
                <path d="M50.4132286,122.412716 C51.1955905,121.633166 51.1955905,120.364212 50.4132286,119.584662 C49.6308666,118.805113 48.3665139,118.805113 47.5841519,119.584662 C46.8052827,120.364212 46.8052827,121.633166 47.5841519,122.412716 C48.3665139,123.195761 49.6308666,123.195761 50.4132286,122.412716" id="Fill-282" fill="#000000"></path>
                <path d="M62.4132286,134.412844 C63.1955905,133.629969 63.1955905,132.364788 62.4132286,131.581913 C61.6308666,130.806029 60.3665139,130.806029 59.5841519,131.581913 C58.8052827,132.364788 58.8052827,133.629969 59.5841519,134.412844 C60.3665139,135.195719 61.6308666,135.195719 62.4132286,134.412844" id="Fill-284" fill="#000000"></path>
                <path d="M74.4154653,146.413229 C75.1948449,145.630867 75.1948449,144.366514 74.4154653,143.584152 C73.6325907,142.805283 72.3674093,142.805283 71.5845347,143.584152 C70.8051551,144.366514 70.8051551,145.630867 71.5845347,146.413229 C72.3674093,147.19559 73.6325907,147.19559 74.4154653,146.413229" id="Fill-286" fill="#000000"></path>
                <path d="M86.4127158,158.413229 C87.1957614,157.630867 87.1957614,156.366514 86.4127158,155.584152 C85.6296701,154.805283 84.3642124,154.805283 83.5846624,155.584152 C82.8051125,156.366514 82.8051125,157.630867 83.5846624,158.413229 C84.3642124,159.19559 85.6296701,159.19559 86.4127158,158.413229" id="Fill-288" fill="#000000"></path>
                <path d="M98.4132286,170.412716 C99.1955905,169.633166 99.1955905,168.367708 98.4132286,167.584662 C97.6308666,166.805113 96.3665139,166.805113 95.5841519,167.584662 C94.8052827,168.367708 94.8052827,169.633166 95.5841519,170.412716 C96.3665139,171.195761 97.6308666,171.195761 98.4132286,170.412716" id="Fill-290" fill="#000000"></path>
                <path d="M110.413229,182.412844 C111.19559,181.629969 111.19559,180.364788 110.413229,179.581913 C109.630867,178.806029 108.366514,178.806029 107.584152,179.581913 C106.805283,180.364788 106.805283,181.629969 107.584152,182.412844 C108.366514,183.195719 109.630867,183.195719 110.413229,182.412844" id="Fill-292" fill="#000000"></path>
                <path d="M122.415465,194.413229 C123.194845,193.630867 123.194845,192.366514 122.415465,191.584152 C121.632591,190.805283 120.367409,190.805283 119.584535,191.584152 C118.805155,192.366514 118.805155,193.630867 119.584535,194.413229 C120.367409,195.19559 121.632591,195.19559 122.415465,194.413229" id="Fill-294" fill="#000000"></path>
                <path d="M135.412716,206.413229 C136.195761,205.630867 136.195761,204.366514 135.412716,203.584152 C134.62967,202.805283 133.364212,202.805283 132.584662,203.584152 C131.805113,204.366514 131.805113,205.630867 132.584662,206.413229 C133.364212,207.19559 134.62967,207.19559 135.412716,206.413229" id="Fill-296" fill="#000000"></path>
                <path d="M146.413229,218.412716 C147.19559,217.633166 147.19559,216.367708 146.413229,215.584662 C145.630867,214.805113 144.366514,214.805113 143.584152,215.584662 C142.805283,216.367708 142.805283,217.633166 143.584152,218.412716 C144.366514,219.195761 145.630867,219.195761 146.413229,218.412716" id="Fill-298" fill="#000000"></path>
                <path d="M158.413229,230.412844 C159.19559,229.629969 159.19559,228.364788 158.413229,227.581913 C157.630867,226.806029 156.366514,226.806029 155.584152,227.581913 C154.805283,228.364788 154.805283,229.629969 155.584152,230.412844 C156.366514,231.195719 157.630867,231.195719 158.413229,230.412844" id="Fill-300" fill="#000000"></path>
                <path d="M168.587156,239.586771 C167.804281,240.369133 167.804281,241.633486 168.587156,242.415848 C169.370031,243.194717 170.635212,243.194717 171.418087,242.415848 C172.193971,241.633486 172.193971,240.369133 171.418087,239.586771 C170.635212,238.80441 169.370031,238.80441 168.587156,239.586771" id="Fill-302" fill="#000000"></path>
                <path d="M182.41381,251.61708 C181.630513,250.794307 180.36465,250.794307 179.58485,251.61708 C178.80505,252.439853 178.80505,253.769513 179.58485,254.592287 L180.168826,255 C181.064022,254.629017 181.969709,254.280073 182.857911,253.887052 C183.144654,253.130395 182.997786,252.230487 182.41381,251.61708" id="Fill-304" fill="#000000"></path>
                <path d="M14.4127158,110.413229 C15.1957614,109.630867 15.1957614,108.366514 14.4127158,107.584152 C13.6296701,106.805283 12.3642124,106.805283 11.5846624,107.584152 C10.8051125,108.366514 10.8051125,109.630867 11.5846624,110.413229 C12.3642124,111.19559 13.6296701,111.19559 14.4127158,110.413229" id="Fill-306" fill="#000000"></path>
                <path d="M26.4132286,122.413229 C27.1955905,121.630867 27.1955905,120.366514 26.4132286,119.584152 C25.6308666,118.805283 24.3665139,118.805283 23.5841519,119.584152 C22.8052827,120.366514 22.8052827,121.630867 23.5841519,122.413229 C24.3665139,123.19559 25.6308666,123.19559 26.4132286,122.413229" id="Fill-308" fill="#000000"></path>
                <path d="M38.4132286,134.415465 C39.1955905,133.632591 39.1955905,132.367409 38.4132286,131.584535 C37.6308666,130.805155 36.3665139,130.805155 35.5841519,131.584535 C34.8052827,132.367409 34.8052827,133.632591 35.5841519,134.415465 C36.3665139,135.194845 37.6308666,135.194845 38.4132286,134.415465" id="Fill-310" fill="#000000"></path>
                <path d="M50.4154653,145.412716 C51.1948449,144.62967 51.1948449,143.364212 50.4154653,142.584662 C49.6325907,141.805113 48.3674093,141.805113 47.5845347,142.584662 C46.8051551,143.364212 46.8051551,144.62967 47.5845347,145.412716 C48.3674093,146.195761 49.6325907,146.195761 50.4154653,145.412716" id="Fill-312" fill="#000000"></path>
                <path d="M62.4127158,158.413229 C63.1957614,157.630867 63.1957614,156.366514 62.4127158,155.584152 C61.6296701,154.805283 60.3642124,154.805283 59.5846624,155.584152 C58.8051125,156.366514 58.8051125,157.630867 59.5846624,158.413229 C60.3642124,159.19559 61.6296701,159.19559 62.4127158,158.413229" id="Fill-314" fill="#000000"></path>
                <path d="M74.4132286,170.413229 C75.1955905,169.630867 75.1955905,168.366514 74.4132286,167.584152 C73.6308666,166.805283 72.3665139,166.805283 71.5841519,167.584152 C70.8052827,168.366514 70.8052827,169.630867 71.5841519,170.413229 C72.3665139,171.19559 73.6308666,171.19559 74.4132286,170.413229" id="Fill-316" fill="#000000"></path>
                <path d="M86.4132286,182.415465 C87.1955905,181.632591 87.1955905,180.367409 86.4132286,179.584535 C85.6308666,178.805155 84.3665139,178.805155 83.5841519,179.584535 C82.8052827,180.367409 82.8052827,181.632591 83.5841519,182.415465 C84.3665139,183.194845 85.6308666,183.194845 86.4132286,182.415465" id="Fill-318" fill="#000000"></path>
                <path d="M98.4154653,194.412716 C99.1948449,193.633166 99.1948449,192.364212 98.4154653,191.584662 C97.6325907,190.805113 96.3674093,190.805113 95.5845347,191.584662 C94.8051551,192.364212 94.8051551,193.633166 95.5845347,194.412716 C96.3674093,195.195761 97.6325907,195.195761 98.4154653,194.412716" id="Fill-320" fill="#000000"></path>
                <path d="M110.412716,206.412844 C111.195761,205.629969 111.195761,204.364788 110.412716,203.581913 C109.62967,202.806029 108.364212,202.806029 107.584662,203.581913 C106.805113,204.364788 106.805113,205.629969 107.584662,206.412844 C108.364212,207.195719 109.62967,207.195719 110.412716,206.412844" id="Fill-322" fill="#000000"></path>
                <path d="M122.413229,218.413229 C123.19559,217.630867 123.19559,216.366514 122.413229,215.584152 C121.630867,214.805283 120.366514,214.805283 119.584152,215.584152 C118.805283,216.366514 118.805283,217.630867 119.584152,218.413229 C120.366514,219.19559 121.630867,219.19559 122.413229,218.413229" id="Fill-324" fill="#000000"></path>
                <path d="M135.413229,230.413229 C136.19559,229.630867 136.19559,228.366514 135.413229,227.584152 C134.630867,226.805283 133.366514,226.805283 132.584152,227.584152 C131.805283,228.366514 131.805283,229.630867 132.584152,230.413229 C133.366514,231.19559 134.630867,231.19559 135.413229,230.413229" id="Fill-326" fill="#000000"></path>
                <path d="M143.587156,239.587284 C142.804281,240.37033 142.804281,241.635788 143.587156,242.415338 C144.370031,243.194887 145.635212,243.194887 146.418087,242.415338 C147.193971,241.635788 147.193971,240.37033 146.418087,239.587284 C145.635212,238.804239 144.370031,238.804239 143.587156,239.587284" id="Fill-328" fill="#000000"></path>
                <path d="M155.587284,251.584535 C154.804239,252.367409 154.804239,253.632591 155.587284,254.415465 C156.366834,255.194845 157.635788,255.194845 158.415338,254.415465 C159.194887,253.632591 159.194887,252.367409 158.415338,251.584535 C157.635788,250.805155 156.366834,250.805155 155.587284,251.584535" id="Fill-330" fill="#000000"></path>
                <g id="Group-334" transform="translate(0.000000, 118.000000)">
                    <mask id="mask-11" fill="white">
                        <use xlink:href="#path-10"></use>
                    </mask>
                    <g id="Clip-333"></g>
                    <path d="M2.57476667,3.83542857 C3.3961,2.98209524 3.3961,1.60304762 2.57476667,0.749714286 C2.1531,0.311619048 1.58843333,0.109714286 1.03476667,0.124952381 C0.895433333,1.53828571 0.8111,2.97066667 0.708433333,4.39542857 C1.36843333,4.52495238 2.0651,4.36495238 2.57476667,3.83542857" id="Fill-332" fill="#000000" mask="url(#mask-11)"></path>
                </g>
                <path d="M14.4132286,134.413229 C15.1955905,133.630867 15.1955905,132.366514 14.4132286,131.584152 C13.6308666,130.805283 12.3665139,130.805283 11.5841519,131.584152 C10.8052827,132.366514 10.8052827,133.630867 11.5841519,134.413229 C12.3665139,135.19559 13.6308666,135.19559 14.4132286,134.413229" id="Fill-335" fill="#000000"></path>
                <path d="M26.4154653,145.413229 C27.1948449,144.630867 27.1948449,143.366514 26.4154653,142.584152 C25.6325907,141.805283 24.3674093,141.805283 23.5845347,142.584152 C22.8051551,143.366514 22.8051551,144.630867 23.5845347,145.413229 C24.3674093,146.19559 25.6325907,146.19559 26.4154653,145.413229" id="Fill-337" fill="#000000"></path>
                <path d="M38.4127158,158.415465 C39.1957614,157.632591 39.1957614,156.367409 38.4127158,155.584535 C37.6296701,154.805155 36.3642124,154.805155 35.5846624,155.584535 C34.8051125,156.367409 34.8051125,157.632591 35.5846624,158.415465 C36.3642124,159.194845 37.6296701,159.194845 38.4127158,158.415465" id="Fill-339" fill="#000000"></path>
                <path d="M50.4132286,170.412716 C51.1955905,169.62967 51.1955905,168.364212 50.4132286,167.584662 C49.6308666,166.805113 48.3665139,166.805113 47.5841519,167.584662 C46.8052827,168.364212 46.8052827,169.62967 47.5841519,170.412716 C48.3665139,171.195761 49.6308666,171.195761 50.4132286,170.412716" id="Fill-341" fill="#000000"></path>
                <path d="M62.4132286,182.413229 C63.1955905,181.630867 63.1955905,180.366514 62.4132286,179.584152 C61.6308666,178.805283 60.3665139,178.805283 59.5841519,179.584152 C58.8052827,180.366514 58.8052827,181.630867 59.5841519,182.413229 C60.3665139,183.19559 61.6308666,183.19559 62.4132286,182.413229" id="Fill-343" fill="#000000"></path>
                <path d="M75.4154653,194.413229 C76.1948449,193.630867 76.1948449,192.366514 75.4154653,191.584152 C74.6325907,190.805283 73.3674093,190.805283 72.5845347,191.584152 C71.8051551,192.366514 71.8051551,193.630867 72.5845347,194.413229 C73.3674093,195.19559 74.6325907,195.19559 75.4154653,194.413229" id="Fill-345" fill="#000000"></path>
                <path d="M86.4127158,206.415465 C87.1957614,205.632591 87.1957614,204.367409 86.4127158,203.584535 C85.6331658,202.805155 84.3642124,202.805155 83.5846624,203.584535 C82.8051125,204.367409 82.8051125,205.632591 83.5846624,206.415465 C84.3642124,207.194845 85.6331658,207.194845 86.4127158,206.415465" id="Fill-347" fill="#000000"></path>
                <path d="M98.412844,218.412716 C99.1957187,217.62967 99.1957187,216.364212 98.412844,215.584662 C97.6299694,214.805113 96.3647881,214.805113 95.5819135,215.584662 C94.8060288,216.364212 94.8060288,217.62967 95.5819135,218.412716 C96.3647881,219.195761 97.6299694,219.195761 98.412844,218.412716" id="Fill-349" fill="#000000"></path>
                <path d="M111.413229,230.413229 C112.19559,229.630867 112.19559,228.366514 111.413229,227.584152 C110.630867,226.805283 109.366514,226.805283 108.584152,227.584152 C107.805283,228.366514 107.805283,229.630867 108.584152,230.413229 C109.366514,231.19559 110.630867,231.19559 111.413229,230.413229" id="Fill-351" fill="#000000"></path>
                <path d="M119.586771,239.586771 C118.80441,240.369133 118.80441,241.633486 119.586771,242.415848 C120.369133,243.194717 121.633486,243.194717 122.415848,242.415848 C123.194717,241.633486 123.194717,240.369133 122.415848,239.586771 C121.633486,238.80441 120.369133,238.80441 119.586771,239.586771" id="Fill-353" fill="#000000"></path>
                <path d="M132.587284,251.587156 C131.804239,252.370031 131.804239,253.635212 132.587284,254.418087 C133.37033,255.193971 134.635788,255.193971 135.415338,254.418087 C136.194887,253.635212 136.194887,252.370031 135.415338,251.587156 C134.635788,250.804281 133.37033,250.804281 132.587284,251.587156" id="Fill-355" fill="#000000"></path>
                <g id="Group-359" transform="translate(143.000000, 260.000000)">
                    <mask id="mask-13" fill="white">
                        <use xlink:href="#path-12"></use>
                    </mask>
                    <g id="Clip-358"></g>
                    <path d="M0.7794,3.57539286 L0.6914,3.72075 C1.64473333,3.63432143 2.60173333,3.54396429 3.5514,3.43396429 C2.7264,2.73467857 1.54206667,2.75825 0.7794,3.57539286" id="Fill-357" fill="#000000" mask="url(#mask-13)"></path>
                </g>
                <g id="Group-362" transform="translate(0.000000, 142.000000)">
                    <mask id="mask-15" fill="white">
                        <use xlink:href="#path-14"></use>
                    </mask>
                    <g id="Clip-361"></g>
                    <path d="M2.63196667,4.03842857 C3.44963333,3.15842857 3.44963333,1.73628571 2.63196667,0.856285714 C2.1223,0.318071429 1.42563333,0.149142857 0.7693,0.278785714 C0.875633333,1.75592857 0.985633333,3.23307143 1.13596667,4.6945 C1.67496667,4.69842857 2.21763333,4.48235714 2.63196667,4.03842857" id="Fill-360" fill="#000000" mask="url(#mask-15)"></path>
                </g>
                <path d="M14.4127158,158.413229 C15.1957614,157.630867 15.1957614,156.366514 14.4127158,155.584152 C13.6331658,154.805283 12.3642124,154.805283 11.5846624,155.584152 C10.8051125,156.366514 10.8051125,157.630867 11.5846624,158.413229 C12.3642124,159.19559 13.6331658,159.19559 14.4127158,158.413229" id="Fill-363" fill="#000000"></path>
                <path d="M26.412844,170.413229 C27.1957187,169.630867 27.1957187,168.366514 26.412844,167.584152 C25.6299694,166.805283 24.3647881,166.805283 23.5819135,167.584152 C22.8060288,168.366514 22.8060288,169.630867 23.5819135,170.413229 C24.3647881,171.19559 25.6299694,171.19559 26.412844,170.413229" id="Fill-365" fill="#000000"></path>
                <path d="M38.4132286,182.412716 C39.1955905,181.633166 39.1955905,180.367708 38.4132286,179.584662 C37.6308666,178.805113 36.3665139,178.805113 35.5841519,179.584662 C34.8052827,180.367708 34.8052827,181.633166 35.5841519,182.412716 C36.3665139,183.195761 37.6308666,183.195761 38.4132286,182.412716" id="Fill-367" fill="#000000"></path>
                <path d="M50.4132286,194.412844 C51.1955905,193.629969 51.1955905,192.364788 50.4132286,191.581913 C49.6308666,190.806029 48.3665139,190.806029 47.5841519,191.581913 C46.8052827,192.364788 46.8052827,193.629969 47.5841519,194.412844 C48.3665139,195.195719 49.6308666,195.195719 50.4132286,194.412844" id="Fill-369" fill="#000000"></path>
                <path d="M62.4127158,206.413229 C63.1957614,205.630867 63.1957614,204.366514 62.4127158,203.584152 C61.6331658,202.805283 60.3677081,202.805283 59.5846624,203.584152 C58.8051125,204.366514 58.8051125,205.630867 59.5846624,206.413229 C60.3677081,207.19559 61.6331658,207.19559 62.4127158,206.413229" id="Fill-371" fill="#000000"></path>
                <path d="M75.412844,218.413229 C76.1957187,217.630867 76.1957187,216.366514 75.412844,215.584152 C74.6299694,214.805283 73.3647881,214.805283 72.5819135,215.584152 C71.8060288,216.366514 71.8060288,217.630867 72.5819135,218.413229 C73.3647881,219.19559 74.6299694,219.19559 75.412844,218.413229" id="Fill-373" fill="#000000"></path>
                <path d="M86.4132286,230.415465 C87.1955905,229.632591 87.1955905,228.367409 86.4132286,227.584535 C85.6308666,226.805155 84.3665139,226.805155 83.5841519,227.584535 C82.8052827,228.367409 82.8052827,229.632591 83.5841519,230.415465 C84.3665139,231.194845 85.6308666,231.194845 86.4132286,230.415465" id="Fill-375" fill="#000000"></path>
                <path d="M95.5867714,239.587284 C94.8044095,240.366834 94.8044095,241.632292 95.5867714,242.415338 C96.3691334,243.194887 97.6334861,243.194887 98.4158481,242.415338 C99.1947173,241.632292 99.1947173,240.366834 98.4158481,239.587284 C97.6334861,238.804239 96.3691334,238.804239 95.5867714,239.587284" id="Fill-377" fill="#000000"></path>
                <path d="M108.587284,251.586771 C107.804239,252.369133 107.804239,253.633486 108.587284,254.415848 C109.37033,255.194717 110.635788,255.194717 111.415338,254.415848 C112.194887,253.633486 112.194887,252.369133 111.415338,251.586771 C110.635788,250.80441 109.37033,250.80441 108.587284,251.586771" id="Fill-379" fill="#000000"></path>
                <g id="Group-383" transform="translate(119.000000, 261.000000)">
                    <mask id="mask-17" fill="white">
                        <use xlink:href="#path-16"></use>
                    </mask>
                    <g id="Clip-382"></g>
                    <path d="M0.472633333,2.61316667 L0.3883,2.74883333 C1.48463333,2.84783333 2.59196667,2.92483333 3.6993,2.99816667 L3.44263333,2.61316667 C2.6213,1.79183333 1.29396667,1.79183333 0.472633333,2.61316667" id="Fill-381" fill="#000000" mask="url(#mask-17)"></path>
                </g>
                <path d="M11.5867714,179.586771 C10.8044095,180.369133 10.8044095,181.633486 11.5867714,182.415848 C12.3691334,183.194717 13.6334861,183.194717 14.4158481,182.415848 C15.1947173,181.633486 15.1947173,180.369133 14.4158481,179.586771 C13.6334861,178.80441 12.3691334,178.80441 11.5867714,179.586771" id="Fill-384" fill="#000000"></path>
                <path d="M23.5867714,191.586771 C22.8044095,192.369133 22.8044095,193.633486 23.5867714,194.415848 C24.3691334,195.194717 25.6334861,195.194717 26.4158481,194.415848 C27.1947173,193.633486 27.1947173,192.369133 26.4158481,191.586771 C25.6334861,190.80441 24.3691334,190.80441 23.5867714,191.586771" id="Fill-386" fill="#000000"></path>
                <path d="M35.5872842,203.587284 C34.8042386,204.37033 34.8042386,205.635788 35.5872842,206.415338 C36.3703299,207.194887 37.6357876,207.194887 38.4153376,206.415338 C39.1948875,205.635788 39.1948875,204.37033 38.4153376,203.587284 C37.6357876,202.804239 36.3703299,202.804239 35.5872842,203.587284" id="Fill-388" fill="#000000"></path>
                <path d="M47.5845347,215.584535 C46.8051551,216.367409 46.8051551,217.632591 47.5845347,218.415465 C48.3674093,219.194845 49.6325907,219.194845 50.4154653,218.415465 C51.1948449,217.632591 51.1948449,216.367409 50.4154653,215.584535 C49.6325907,214.805155 48.3674093,214.805155 47.5845347,215.584535" id="Fill-390" fill="#000000"></path>
                <path d="M59.5867714,227.586771 C58.8044095,228.369133 58.8044095,229.633486 59.5867714,230.415848 C60.3691334,231.194717 61.6334861,231.194717 62.4158481,230.415848 C63.1947173,229.633486 63.1947173,228.369133 62.4158481,227.586771 C61.6334861,226.80441 60.3691334,226.80441 59.5867714,227.586771" id="Fill-392" fill="#000000"></path>
                <path d="M72.5867714,239.586771 C71.8044095,240.369133 71.8044095,241.633486 72.5867714,242.415848 C73.3691334,243.194717 74.6334861,243.194717 75.4158481,242.415848 C76.1947173,241.633486 76.1947173,240.369133 75.4158481,239.586771 C74.6334861,238.80441 73.3691334,238.80441 72.5867714,239.586771" id="Fill-394" fill="#000000"></path>
                <path d="M83.587156,251.587284 C82.8042813,252.37033 82.8042813,253.635788 83.587156,254.415338 C84.3700306,255.194887 85.6352119,255.194887 86.4180865,254.415338 C87.1939712,253.635788 87.1939712,252.37033 86.4180865,251.587284 C85.6352119,250.804239 84.3700306,250.804239 83.587156,251.587284" id="Fill-396" fill="#000000"></path>
            </g>
        </g>
    </g>
</svg>