<?xml version="1.0" encoding="utf-8"?>
<!-- Generator: Adobe Illustrator 24.2.3, SVG Export Plug-In . SVG Version: 6.00 Build 0)  -->
<svg version="1.1" id="Layer_1" xmlns="http://www.w3.org/2000/svg" xmlns:xlink="http://www.w3.org/1999/xlink" x="0px" y="0px"
	 viewBox="0 0 239.4 239.4" style="enable-background:new 0 0 239.4 239.4;" xml:space="preserve">
<style type="text/css">
	.st0{fill:#D17C78;}
</style>
<g id="_2">
	<path class="st0" d="M144.6,142.5c2.4-3.8,1.3-8.7-2.5-11.1c-0.5-0.3-1.1-0.6-1.6-0.8v-27.1l7.7-9.1V74h-16v11.5h-5.1V74h-15.7
		v11.5h-5.1V74h-16v20.3l7.7,9.1v27.1c-4.2,1.5-6.4,6.1-4.9,10.3c0.3,0.7,0.6,1.4,1.1,2c-3.3,2.2-5.2,5.9-5.2,9.9v12.4h61.6v-12.4
		C150.6,148.5,148.3,144.6,144.6,142.5z M95.6,92.3V79.4h5.2v11.4h15.9V79.4h4.9v11.4h15.9V79.4h5.2v12.9l-7.7,9.1v28.6h-7.8v-14.4
		c-0.2-4.5-3.9-8-8.4-7.8c-4.3,0.1-7.7,3.6-7.8,7.8v14.4h-7.8v-28.6L95.6,92.3z M137.7,135.5c1.5,0,2.7,1.2,2.7,2.7
		c0,1.5-1.2,2.7-2.7,2.7h-37.1c-1.5,0-2.7-1.2-2.7-2.7c0-1.5,1.2-2.7,2.7-2.7H137.7z M116.5,130.1v-14.4c0-1.5,1.2-2.7,2.7-2.7
		s2.7,1.2,2.7,2.7v14.4H116.5z M145.1,159.8H94.3v-7c0-3.5,2.8-6.4,6.3-6.5h38c3.6,0,6.5,2.9,6.5,6.5L145.1,159.8z"/>
	<path class="st0" d="M48.4,159c-0.5-0.9-1.1-1.7-1.9-2.3c-0.8-0.6-1.6-1-2.5-1.2c-0.9-0.3-1.9-0.3-2.8-0.2c-1,0.1-2,0.4-2.8,0.9
		c-0.9,0.5-1.7,1.1-2.3,1.9c-1.2,1.5-1.8,3.4-1.6,5.4c0.1,1,0.4,2,0.9,2.9c0.6,1.2,1.5,2.1,2.6,2.8c0.9,0.6,2,1,3.1,1.2l-1,3.8
		c-1.6-0.3-3.2-0.9-4.5-1.9c-1.5-1.1-2.8-2.5-3.6-4.2c-0.8-1.4-1.3-3-1.5-4.6c-0.2-1.5-0.1-3,0.4-4.4c0.4-1.4,1.1-2.7,2-3.8
		c1-1.2,2.1-2.2,3.5-2.9c1.3-0.7,2.8-1.2,4.3-1.4c1.4-0.2,2.9,0,4.3,0.4c1.4,0.4,2.7,1.1,3.9,2.1c1.2,1,2.3,2.3,3,3.7
		c1.5,2.6,1.9,5.7,1.1,8.6l-3.8-1c0.3-0.9,0.4-1.9,0.4-2.8C49.2,160.9,48.9,159.9,48.4,159z"/>
	<path class="st0" d="M60.3,187.3l-7.8-7.7l-6.9,7.1l-3-3L57.9,168l3,3l-5.8,5.9l7.8,7.7l5.8-6l3,3l-15.4,15.7l-3-3L60.3,187.3z"/>
	<path class="st0" d="M78.2,189.7l-2.2,4l5.9,3.3l-1.8,3.3l-5.9-3.3l-3,5.4l8.1,4.5l-1.8,3.3l-11.8-6.6l10.7-19.2l11.5,6.4l-1.8,3.3
		L78.2,189.7z"/>
	<path class="st0" d="M88.7,208.3c0.4,0.9,1,1.6,1.8,2.3c0.7,0.7,1.6,1.2,2.6,1.4c0.8,0.3,1.7,0.2,2.4-0.1c0.7-0.3,1.2-0.9,1.4-1.7
		c0.2-0.6,0.1-1.3-0.2-1.8c-0.4-0.6-0.8-1.1-1.3-1.6c-0.6-0.5-1.3-1.1-1.9-1.5c-0.7-0.5-1.4-1.1-2-1.7c-0.7-0.7-1.2-1.6-1.6-2.5
		c-0.4-1-0.4-2.1,0-3.2c0.2-0.9,0.7-1.7,1.3-2.4c0.6-0.6,1.3-1.1,2.1-1.4c0.8-0.3,1.7-0.5,2.6-0.5c0.9,0,1.8,0.1,2.7,0.3
		c1.1,0.3,2.1,0.7,3,1.3c1,0.6,1.9,1.5,2.6,2.4l-3,2.4c-0.3-0.6-0.8-1.1-1.3-1.5c-0.6-0.5-1.2-0.8-1.9-1c-0.4-0.1-0.8-0.2-1.2-0.2
		c-0.4,0-0.8,0-1.2,0.1c-0.4,0.1-0.7,0.2-1,0.5c-0.3,0.3-0.5,0.6-0.6,1c-0.2,0.6,0,1.1,0.3,1.6c0.4,0.6,1,1.1,1.5,1.5
		c0.6,0.5,1.3,1,2.1,1.6c0.7,0.6,1.4,1.2,2,1.9c0.6,0.7,1,1.6,1.3,2.4c0.3,1,0.2,2.1-0.1,3.1c-0.2,0.9-0.7,1.7-1.3,2.4
		c-0.6,0.7-1.3,1.2-2.1,1.6c-0.8,0.4-1.7,0.6-2.7,0.7c-1,0.1-1.9,0-2.9-0.3c-1.4-0.4-2.7-1.1-3.8-2c-1.2-0.9-2.1-2.1-2.9-3.4
		L88.7,208.3z"/>
	<path class="st0" d="M108.7,212.8c0.6,0.8,1.4,1.4,2.2,1.9c0.9,0.5,1.8,0.8,2.8,0.9c0.8,0.1,1.7-0.1,2.3-0.6c0.6-0.5,1-1.2,1-1.9
		c0.1-0.6-0.1-1.3-0.6-1.8c-0.5-0.5-1-0.9-1.7-1.2c-0.7-0.4-1.5-0.8-2.2-1.1c-0.8-0.3-1.6-0.7-2.3-1.2c-0.8-0.5-1.5-1.3-2.1-2.1
		c-0.6-0.9-0.8-2-0.7-3.1c0-0.9,0.3-1.8,0.8-2.6c0.5-0.7,1.1-1.4,1.8-1.9c0.7-0.5,1.5-0.9,2.4-1.1c0.9-0.2,1.8-0.3,2.7-0.2
		c1.1,0.1,2.2,0.3,3.2,0.6c1.1,0.4,2.1,1,3,1.8l-2.4,3c-0.5-0.5-1-0.9-1.6-1.1c-0.7-0.3-1.4-0.5-2.1-0.5c-0.4,0-0.8,0-1.2,0.1
		c-0.4,0.1-0.8,0.2-1.1,0.4c-0.3,0.2-0.6,0.4-0.8,0.7c-0.2,0.3-0.3,0.7-0.4,1.1c0,0.6,0.2,1.1,0.7,1.5c0.6,0.5,1.2,0.8,1.8,1.1
		l2.4,1.1c0.8,0.4,1.6,0.9,2.3,1.5c0.7,0.6,1.3,1.3,1.8,2.1c0.5,1,0.7,2,0.6,3.1c0,0.9-0.3,1.8-0.8,2.6c-0.4,0.8-1,1.5-1.8,2
		c-0.7,0.5-1.6,1-2.4,1.2c-0.9,0.3-1.9,0.4-2.9,0.3c-1.5-0.1-2.9-0.5-4.2-1.1c-1.3-0.7-2.5-1.6-3.6-2.6L108.7,212.8z"/>
	<path class="st0" d="M146.9,196c-1,0.3-1.8,0.8-2.6,1.5c-1.4,1.3-2.3,3.1-2.4,5c-0.1,1,0.1,2,0.4,3c0.3,1,0.8,1.9,1.5,2.6
		c0.6,0.7,1.4,1.3,2.3,1.8c1.8,0.9,3.9,1,5.8,0.4c1.2-0.4,2.4-1.1,3.2-2c0.7-0.8,1.3-1.8,1.7-2.8l3.6,1.5c-0.6,1.6-1.5,3-2.7,4.1
		c-1.3,1.3-3,2.3-4.8,2.8c-1.5,0.5-3.1,0.8-4.8,0.7c-1.5-0.1-2.9-0.5-4.2-1.1c-1.3-0.6-2.5-1.5-3.4-2.6c-1-1.1-1.8-2.5-2.2-3.9
		c-0.5-1.4-0.7-3-0.6-4.5c0.1-1.5,0.5-2.9,1.1-4.2c0.7-1.3,1.6-2.5,2.7-3.4c1.2-1,2.7-1.8,4.2-2.3c1.5-0.5,3-0.7,4.5-0.6
		c1.4,0.1,2.8,0.4,4.1,1l-1.7,3.6c-0.9-0.4-1.8-0.7-2.8-0.8C148.9,195.5,147.8,195.7,146.9,196z"/>
	<path class="st0" d="M157.4,187.6l3.6-2.3l10,15.2l7.8-5.1l2.1,3.2l-11.3,7.4L157.4,187.6z"/>
	<path class="st0" d="M193.7,186.9c-0.8,0.9-1.8,1.7-2.9,2.3c-1,0.6-2.1,0.9-3.3,1.1c-1.2,0.1-2.5,0-3.6-0.5
		c-1.4-0.5-2.6-1.4-3.7-2.4l-9.4-8.6l2.9-3.1l9.6,8.8c0.6,0.6,1.3,1.1,2.1,1.4c0.6,0.2,1.3,0.3,1.9,0.3c2.8-0.3,4.9-2.7,5-5.5
		c0-0.7-0.2-1.3-0.5-1.9c-0.4-0.8-0.9-1.4-1.6-2l-9.6-8.7l2.9-3.1l9.4,8.6c1.1,1,2,2.1,2.7,3.5c0.5,1.1,0.8,2.3,0.8,3.6
		c0,1.2-0.3,2.3-0.8,3.4C195.2,185,194.5,186,193.7,186.9z"/>
	<path class="st0" d="M189.6,153.9c0.4-0.9,1-1.8,1.7-2.5c0.5-0.5,1.2-0.9,1.9-1.2c0.8-0.3,1.6-0.4,2.4-0.4c0.9,0,1.7,0.2,2.5,0.6
		c0.6,0.3,1.2,0.8,1.7,1.3c0.4,0.5,0.8,1,1,1.6c0.9-0.7,2-1.1,3.1-1.1c1.2-0.1,2.4,0.2,3.4,0.7c0.8,0.4,1.5,1,2.1,1.7
		c0.5,0.7,1,1.4,1.2,2.3c0.3,0.9,0.4,1.8,0.3,2.7c-0.2,1.2-0.5,2.3-1.1,3.4l-3.9,7.7l-19.7-9.9L189.6,153.9z M195.7,160.6l1.3-2.7
		c0.3-0.4,0.4-0.9,0.5-1.4c0-0.3,0-0.7-0.1-1c-0.1-0.3-0.3-0.5-0.4-0.7c-0.2-0.2-0.4-0.4-0.7-0.5c-0.3-0.1-0.5-0.2-0.8-0.2
		c-0.3,0-0.6,0-0.9,0.1c-0.3,0.1-0.6,0.3-0.9,0.5c-0.4,0.4-0.7,0.8-0.9,1.2l-1.3,2.7L195.7,160.6z M206.3,161.2
		c0.3-0.5,0.5-1.1,0.6-1.7c0.1-1.2-0.5-2.4-1.6-2.9c-0.7-0.3-1.4-0.4-2.1-0.2c-0.4,0.1-0.8,0.3-1.1,0.6c-0.4,0.4-0.8,0.9-1,1.4
		l-1.9,3.8l5.3,2.7L206.3,161.2z"/>
	<path class="st0" d="M32.6,77.8l4.1,2l3-6.1l3.4,1.7l-3,6.1l8.9,4.3l-1.9,3.8L27.4,80l5.8-11.9l3.4,1.7L32.6,77.8z"/>
	<path class="st0" d="M43.5,59.9l3.6,2.8l4.2-5.3l2.9,2.4L50,65.2l4.8,3.8l5.8-7.2l2.9,2.4l-8.5,10.5L37.9,60.9l8.3-10.3l2.9,2.4
		L43.5,59.9z"/>
	<path class="st0" d="M53.1,43.9l3.3-2.6l11.3,14.3l7.2-5.8l2.3,3l-10.6,8.4L53.1,43.9z"/>
	<path class="st0" d="M71,31.3l3.8-2l10.3,19.4l-3.7,2L71,31.3z"/>
	<path class="st0" d="M97.3,31.7l10.6,9.1l-4.7,1.4l-7.5-6.5L93,45.2l-4.7,1.4l4-13.4l-9.3-8l4.7-1.4l6.2,5.5l2.3-7.9l4.7-1.4
		L97.3,31.7z"/>
	<path class="st0" d="M111.4,35c0.7,0.7,1.5,1.2,2.4,1.6c0.9,0.4,1.9,0.6,2.9,0.6c0.8,0,1.7-0.3,2.3-0.9c0.6-0.5,0.9-1.2,0.8-2
		c0-0.7-0.3-1.3-0.8-1.8c-0.5-0.4-1.1-0.8-1.8-1.1c-0.8-0.3-1.5-0.6-2.3-0.9c-0.8-0.3-1.6-0.6-2.4-1c-0.9-0.5-1.6-1.1-2.3-1.9
		c-0.7-0.9-1-1.9-1-3c-0.1-0.9,0.1-1.8,0.5-2.6c0.4-0.8,0.9-1.4,1.6-2c0.7-0.6,1.4-1,2.3-1.3c0.9-0.3,1.8-0.5,2.7-0.5
		c1.1,0,2.2,0.1,3.3,0.3c1.1,0.3,2.2,0.8,3.2,1.5l-2.1,3.2c-0.5-0.4-1.1-0.8-1.7-1c-0.7-0.2-1.4-0.4-2.1-0.3c-0.4,0-0.8,0.1-1.2,0.2
		c-0.4,0.1-0.8,0.3-1.1,0.5c-0.3,0.2-0.6,0.5-0.8,0.8c-0.2,0.3-0.3,0.7-0.3,1.1c0,0.6,0.3,1.1,0.8,1.4c0.6,0.4,1.2,0.7,1.9,1
		l2.5,0.9c0.9,0.3,1.7,0.7,2.5,1.2c0.8,0.5,1.5,1.2,2,1.9c1,1.7,1.2,3.9,0.4,5.7c-0.4,0.8-0.9,1.5-1.6,2.1c-0.7,0.6-1.5,1.1-2.3,1.4
		c-0.9,0.4-1.8,0.6-2.8,0.6c-1.5,0.1-2.9-0.2-4.3-0.7c-1.4-0.5-2.7-1.3-3.8-2.3L111.4,35z"/>
	<path class="st0" d="M145.6,21.5l-0.7,3.7l-5.7-1L136,42.2l-4.2-0.7l3.2-17.9l-5.7-1l0.7-3.7L145.6,21.5z"/>
	<path class="st0" d="M148,33.3c0.6-1.4,1.5-2.6,2.6-3.6c1.1-1,2.3-1.7,3.7-2.2c1.4-0.5,2.9-0.7,4.3-0.6c3.2,0.2,6.2,1.6,8.4,4
		c1,1.1,1.7,2.4,2.2,3.8c0.5,1.4,0.7,2.8,0.6,4.2c-0.2,3.1-1.6,5.9-3.8,8c-1.1,1-2.3,1.7-3.7,2.2c-1.4,0.5-2.9,0.7-4.3,0.6
		c-1.6-0.1-3.2-0.5-4.6-1.2c-1.4-0.7-2.7-1.6-3.8-2.8c-1-1.1-1.7-2.4-2.2-3.8c-0.5-1.4-0.7-2.8-0.6-4.2
		C146.9,36.1,147.3,34.6,148,33.3z M151.8,35.1c-0.5,0.9-0.7,1.9-0.8,2.9c-0.1,0.9,0,1.9,0.3,2.8c0.3,0.9,0.8,1.7,1.4,2.4
		c0.7,0.7,1.5,1.3,2.4,1.8c0.9,0.4,1.9,0.7,2.9,0.7c0.9,0,1.9-0.1,2.8-0.5c0.9-0.3,1.7-0.9,2.4-1.5c2.2-2.1,3.1-5.2,2.2-8.1
		c-0.3-0.9-0.8-1.7-1.4-2.5c-0.6-0.7-1.4-1.3-2.3-1.8c-0.9-0.4-1.9-0.7-2.9-0.7c-0.9,0-1.9,0.1-2.8,0.5c-0.9,0.3-1.7,0.9-2.4,1.5
		C152.8,33.4,152.2,34.2,151.8,35.1L151.8,35.1z"/>
	<path class="st0" d="M180.6,37.5l3,3L177,53.5l13.2-6.2l2.1,2.1l-6.4,13.1l13-6.4l3,3l-20.8,10.3l-2.1-2.1l6.5-13.3l-13.3,6.3
		l-2.1-2.1L180.6,37.5z"/>
	<path class="st0" d="M204.9,73l-4,2.1l3.1,6l-3.4,1.7l-3.1-6l-5.5,2.8l4.2,8.2l-3.4,1.7l-6.2-12l19.6-10.1l6,11.7L209,81L204.9,73z
		"/>
	<path class="st0" d="M11.7,119.3c0.3,0.3,0.6,0.6,1,0.7c0.4,0.2,0.8,0.3,1.2,0.3c0.4,0,0.7-0.1,1-0.3c0.2-0.2,0.4-0.5,0.4-0.8
		c0-0.3-0.1-0.5-0.3-0.7c-0.2-0.2-0.5-0.4-0.7-0.5c-0.3-0.2-0.7-0.3-1-0.4c-0.3-0.1-0.7-0.3-1-0.5c-0.4-0.2-0.7-0.5-1-0.8
		c-0.2-0.4-0.3-0.8-0.3-1.3c0-0.4,0.1-0.8,0.3-1.1c0.2-0.3,0.4-0.6,0.7-0.8c0.3-0.2,0.6-0.4,1-0.5c0.4-0.1,0.8-0.2,1.2-0.2
		c0.5,0,0.9,0.1,1.4,0.2c0.5,0.2,0.9,0.4,1.3,0.7l-0.9,1.3c-0.2-0.2-0.5-0.3-0.7-0.4c-0.3-0.1-0.6-0.2-0.9-0.2c-0.2,0-0.3,0-0.5,0.1
		c-0.2,0-0.3,0.1-0.5,0.2c-0.1,0.1-0.3,0.2-0.3,0.3c-0.1,0.1-0.1,0.3-0.1,0.5c0,0.2,0.1,0.5,0.3,0.6c0.2,0.2,0.5,0.3,0.8,0.4
		l1.1,0.4c0.4,0.2,0.7,0.3,1,0.6c0.3,0.2,0.6,0.5,0.8,0.9c0.2,0.4,0.3,0.9,0.3,1.3c0,0.4-0.1,0.8-0.3,1.2c-0.2,0.3-0.4,0.6-0.7,0.9
		c-0.3,0.3-0.6,0.4-1,0.6c-0.4,0.1-0.8,0.2-1.2,0.2c-0.6,0-1.2-0.1-1.8-0.4c-0.6-0.2-1.1-0.6-1.6-1L11.7,119.3z"/>
	<path class="st0" d="M18.7,112.4h1.8v9.4h-1.8V112.4z"/>
	<path class="st0" d="M22.7,112.4H24l5.2,6.2v-6.2H31v9.4h-1.3l-5.2-6.2v6.2h-1.8V112.4z"/>
	<path class="st0" d="M37.5,113.9c-0.4,0-0.8,0.1-1.2,0.2c-0.4,0.2-0.7,0.4-1,0.7c-0.3,0.3-0.5,0.6-0.7,1c-0.2,0.4-0.2,0.8-0.2,1.3
		c0,0.4,0.1,0.9,0.2,1.3c0.2,0.4,0.4,0.7,0.7,1c0.3,0.3,0.6,0.5,1,0.7c0.4,0.2,0.8,0.3,1.3,0.2c0.6,0,1.1-0.1,1.6-0.4
		c0.4-0.2,0.8-0.5,1.1-0.9l1.2,1.1c-0.4,0.6-1,1-1.6,1.3c-0.7,0.3-1.5,0.5-2.3,0.5c-0.7,0-1.4-0.1-2-0.4c-0.6-0.2-1.1-0.6-1.6-1
		c-0.4-0.4-0.8-1-1-1.5c-0.2-0.6-0.4-1.2-0.4-1.9c0-0.7,0.1-1.3,0.4-1.9c0.2-0.6,0.6-1.1,1-1.5c0.5-0.4,1-0.8,1.6-1
		c0.6-0.3,1.3-0.4,2-0.4c0.7,0,1.3,0.1,1.9,0.4c0.6,0.2,1.1,0.6,1.5,1l-1.2,1.2c-0.3-0.3-0.6-0.5-1-0.7
		C38.3,114,37.9,113.9,37.5,113.9z"/>
	<path class="st0" d="M44.6,114.1v2h2.9v1.6h-2.9v2.6h4v1.6h-5.8v-9.4h5.7v1.6L44.6,114.1z"/>
	<path class="st0" d="M194.6,113.8l2.3-1.3h1.3v9.4h-1.8v-7.3l-1.8,1V113.8z"/>
	<path class="st0" d="M201.7,121.9l1.8-3h-0.1c-0.9,0-1.7-0.3-2.3-0.9c-0.6-0.6-1-1.5-1-2.3c0-0.4,0.1-0.9,0.3-1.3
		c0.2-0.4,0.4-0.7,0.7-1c0.3-0.3,0.7-0.5,1.1-0.7c0.4-0.2,0.9-0.3,1.3-0.3c0.4,0,0.9,0.1,1.3,0.2c0.4,0.1,0.8,0.4,1.1,0.7
		c0.7,0.6,1.1,1.4,1.1,2.3c0,0.5-0.1,0.9-0.3,1.3c-0.2,0.4-0.4,0.9-0.6,1.3l-2.2,3.8L201.7,121.9z M204.6,117
		c0.1-0.2,0.3-0.4,0.4-0.7c0.1-0.3,0.2-0.6,0.2-0.8c0-0.2,0-0.4-0.1-0.6c-0.1-0.2-0.2-0.4-0.4-0.5c-0.2-0.2-0.3-0.3-0.5-0.3
		c-0.2-0.1-0.4-0.1-0.6-0.1c-0.2,0-0.4,0-0.6,0.1c-0.2,0.1-0.4,0.2-0.5,0.4c-0.1,0.1-0.3,0.3-0.3,0.5c-0.1,0.2-0.1,0.4-0.1,0.6
		c0,0.4,0.2,0.9,0.5,1.2c0.2,0.2,0.3,0.3,0.5,0.4c0.2,0.1,0.5,0.1,0.7,0.1C203.9,117.2,204.2,117.2,204.6,117L204.6,117z"/>
	<path class="st0" d="M213.8,112.4v5.7h1.6v1.6h-1.6v2.2h-1.8v-2.2h-4.4v-1.1l4.9-6.2H213.8z M211.9,118.1v-2.2l-1.8,2.2H211.9z"/>
	<path class="st0" d="M217.4,119.6c0.2,0.2,0.5,0.4,0.7,0.5c0.3,0.1,0.6,0.2,0.9,0.2c0.4,0,0.8-0.1,1.1-0.4c0.2-0.2,0.3-0.3,0.4-0.5
		c0.1-0.2,0.1-0.4,0.1-0.7c0-0.5-0.2-1-0.6-1.3c-0.2-0.1-0.3-0.2-0.5-0.3c-0.2-0.1-0.4-0.1-0.6-0.1c-0.2,0-0.5,0-0.7,0.1
		c-0.2,0.1-0.5,0.2-0.7,0.4l-1.1-0.2l0.6-5h5v1.6h-3.5l-0.1,1.5c0.2,0,0.5-0.1,0.7-0.1c0.4,0,0.8,0.1,1.1,0.2
		c0.4,0.1,0.8,0.3,1.1,0.6c0.4,0.3,0.7,0.7,0.9,1.1c0.2,0.5,0.3,0.9,0.3,1.4c0,0.4-0.1,0.9-0.3,1.3c-0.2,0.4-0.4,0.7-0.7,1
		c-0.3,0.3-0.7,0.5-1.1,0.7c-0.4,0.2-0.9,0.3-1.3,0.3c-1.1,0-2.1-0.4-2.9-1.2L217.4,119.6z"/>
	<path class="st0" d="M119.7,185.5c-36.6,0-66.3-29.7-66.3-66.3s29.7-66.3,66.3-66.3S186,82.6,186,119.2l0,0
		C186,155.8,156.3,185.5,119.7,185.5z M119.7,57.9c-33.9,0-61.4,27.5-61.4,61.4s27.5,61.4,61.4,61.4s61.4-27.5,61.4-61.4
		C181,85.4,153.6,57.9,119.7,57.9z"/>
	<path class="st0" d="M119.7,237.5c-65.3,0-118.2-53-118.2-118.3S54.5,1,119.8,1C185.1,1,238,53.9,238,119.2
		C237.9,184.5,185,237.4,119.7,237.5z M119.7,5.9C57.2,5.9,6.4,56.7,6.4,119.2c0,62.6,50.7,113.3,113.3,113.3S233,181.8,233,119.2
		c0,0,0,0,0,0C232.9,56.7,182.3,6,119.7,5.9z"/>
</g>
</svg>
