<svg xmlns="http://www.w3.org/2000/svg" viewBox="0 0 239.45 239.42"><defs><style>.cls-1{fill:#f1c3b8;}.cls-2{fill:#d17c78;}</style></defs><g id="_2" data-name="2"><path class="cls-1" d="M144.6,142.46a8.07,8.07,0,0,0-4.11-11.93V103.39l7.71-9.09V74h-16V85.46h-5.1V74H111.36V85.47h-5.1V74h-16V94.3l7.7,9.09v27.14a8.08,8.08,0,0,0-3.81,12.37,11.91,11.91,0,0,0-5.23,9.85v12.39h61.64V152.75A11.9,11.9,0,0,0,144.6,142.46Zm-49-50.14V79.42h5.24V90.85h15.88V79.42h4.94V90.85h15.87V79.42h5.25v12.9l-7.7,9.09v28.64h-7.8V115.63a8.1,8.1,0,0,0-16.19,0v14.42h-7.79V101.41Zm42.13,43.14a2.68,2.68,0,1,1,0,5.36H100.67a2.68,2.68,0,1,1,0-5.36Zm-21.22-5.41V115.63a2.68,2.68,0,0,1,5.36,0v14.42Zm28.62,29.7H94.29v-7a6.53,6.53,0,0,1,6.33-6.51h38a6.53,6.53,0,0,1,6.53,6.52Z"/><path class="cls-2" d="M48.42,159a7.18,7.18,0,0,0-1.91-2.27A7.58,7.58,0,0,0,44,155.5a7.44,7.44,0,0,0-2.83-.21,7.94,7.94,0,0,0-2.85.92A7.81,7.81,0,0,0,36,158.15a7.31,7.31,0,0,0-1.6,5.38,7.44,7.44,0,0,0,.91,2.89,7.24,7.24,0,0,0,2.56,2.83,8.53,8.53,0,0,0,3.09,1.18L40,174.25a10.94,10.94,0,0,1-4.51-1.91,12,12,0,0,1-3.61-4.2,12.19,12.19,0,0,1-1.48-4.56,11.21,11.21,0,0,1,.35-4.38,10.93,10.93,0,0,1,2-3.83,11.29,11.29,0,0,1,3.49-2.88,11.72,11.72,0,0,1,4.29-1.38,10.86,10.86,0,0,1,4.3.37,10.75,10.75,0,0,1,3.86,2.07,12.18,12.18,0,0,1,3,3.72,11.39,11.39,0,0,1,1.09,8.57l-3.85-1A8.2,8.2,0,0,0,49.3,162,7,7,0,0,0,48.42,159Z"/><path class="cls-2" d="M60.29,187.28l-7.85-7.71-6.94,7.07-3-3L57.88,168l3,3-5.83,5.95,7.85,7.71,5.84-6,3,3L56.39,197.32l-3-3Z"/><path class="cls-2" d="M78.15,189.72l-2.22,4L81.84,197,80,200.28,74.09,197l-3,5.35,8.11,4.51-1.84,3.3-11.81-6.57,10.7-19.23,11.54,6.42L86,194.07Z"/><path class="cls-2" d="M88.72,208.27a7.73,7.73,0,0,0,1.75,2.29A6.14,6.14,0,0,0,93.05,212a3.38,3.38,0,0,0,2.44-.12,2.56,2.56,0,0,0,1.4-1.66,2.24,2.24,0,0,0-.2-1.84,7.15,7.15,0,0,0-1.35-1.58,20.16,20.16,0,0,0-1.94-1.52,13.82,13.82,0,0,1-2-1.7,7.53,7.53,0,0,1-1.59-2.48,4.91,4.91,0,0,1,0-3.18,5.27,5.27,0,0,1,1.32-2.35,6.23,6.23,0,0,1,2.1-1.43,7,7,0,0,1,2.55-.54,9.18,9.18,0,0,1,2.7.34,11.49,11.49,0,0,1,3,1.33,10,10,0,0,1,2.57,2.41l-3,2.42a5.3,5.3,0,0,0-1.33-1.46,5.85,5.85,0,0,0-1.93-1,5.36,5.36,0,0,0-1.21-.19,3.7,3.7,0,0,0-1.17.11,2.37,2.37,0,0,0-1,.49,1.93,1.93,0,0,0-.58,1,1.73,1.73,0,0,0,.33,1.59,8.8,8.8,0,0,0,1.53,1.52c.64.5,1.33,1,2.08,1.61a11.73,11.73,0,0,1,2,1.94,7,7,0,0,1,1.27,2.45,5.7,5.7,0,0,1-.11,3.15,5.87,5.87,0,0,1-1.32,2.42,6.63,6.63,0,0,1-2.14,1.55,7.71,7.71,0,0,1-2.65.66,8.44,8.44,0,0,1-2.86-.31,10.61,10.61,0,0,1-3.85-2,12.94,12.94,0,0,1-2.9-3.36Z"/><path class="cls-2" d="M108.71,212.81a7.9,7.9,0,0,0,2.21,1.86,6.23,6.23,0,0,0,2.83.86,3.38,3.38,0,0,0,2.35-.65,2.5,2.5,0,0,0,1-1.93,2.19,2.19,0,0,0-.59-1.75,6.91,6.91,0,0,0-1.66-1.24,20.89,20.89,0,0,0-2.22-1.08,13,13,0,0,1-2.27-1.23,7.52,7.52,0,0,1-2.09-2.08,4.88,4.88,0,0,1-.73-3.09,5.44,5.44,0,0,1,.78-2.59,6.57,6.57,0,0,1,1.75-1.85,7.06,7.06,0,0,1,2.38-1.07,8.73,8.73,0,0,1,2.7-.25,11.37,11.37,0,0,1,3.22.64,9.85,9.85,0,0,1,3,1.8l-2.38,3a5.13,5.13,0,0,0-1.62-1.13,5.82,5.82,0,0,0-2.09-.54,5.65,5.65,0,0,0-1.22.08,3.87,3.87,0,0,0-1.12.36,2.23,2.23,0,0,0-.83.69,1.92,1.92,0,0,0-.36,1.06,1.75,1.75,0,0,0,.67,1.49,8.78,8.78,0,0,0,1.82,1.15l2.38,1.13a11.14,11.14,0,0,1,2.35,1.46,6.83,6.83,0,0,1,1.77,2.11,5.7,5.7,0,0,1,.57,3.11,5.88,5.88,0,0,1-.76,2.65,6.52,6.52,0,0,1-1.76,2,7.54,7.54,0,0,1-2.44,1.21,8.29,8.29,0,0,1-2.86.33,10.72,10.72,0,0,1-4.18-1.11,13.16,13.16,0,0,1-3.57-2.65Z"/><path class="cls-2" d="M146.87,196a7,7,0,0,0-2.57,1.5,7.3,7.3,0,0,0-2.39,5,7.81,7.81,0,0,0,.42,3,7.63,7.63,0,0,0,1.5,2.64,7.21,7.21,0,0,0,2.27,1.76,7.45,7.45,0,0,0,5.76.35,7.23,7.23,0,0,0,3.23-2,8.46,8.46,0,0,0,1.69-2.84l3.61,1.54a10.84,10.84,0,0,1-2.67,4.11,12,12,0,0,1-4.75,2.83,12.26,12.26,0,0,1-4.75.67,11.09,11.09,0,0,1-4.25-1.11,10.78,10.78,0,0,1-3.43-2.64,11.38,11.38,0,0,1-2.23-3.93,11.52,11.52,0,0,1-.61-4.47,10.75,10.75,0,0,1,1.1-4.17,11.33,11.33,0,0,1,2.7-3.45,12.36,12.36,0,0,1,4.19-2.33,11.67,11.67,0,0,1,4.53-.63,11.37,11.37,0,0,1,4.1,1l-1.67,3.61a8.24,8.24,0,0,0-2.75-.79A7.09,7.09,0,0,0,146.87,196Z"/><path class="cls-2" d="M157.45,187.65l3.55-2.32,10,15.25,7.76-5.08,2.07,3.16-11.31,7.4Z"/><path class="cls-2" d="M193.72,186.86a11.18,11.18,0,0,1-2.85,2.27,8.5,8.5,0,0,1-3.28,1.07,7.87,7.87,0,0,1-3.64-.48,11.43,11.43,0,0,1-3.67-2.38l-9.39-8.61,2.87-3.13,9.62,8.82a6.84,6.84,0,0,0,2.08,1.4,4.3,4.3,0,0,0,1.91.3,5.66,5.66,0,0,0,5-5.52,4.16,4.16,0,0,0-.46-1.87,6.91,6.91,0,0,0-1.57-2L180.77,168l2.87-3.13,9.38,8.6a11.55,11.55,0,0,1,2.7,3.46,7.89,7.89,0,0,1,.79,3.58,8.41,8.41,0,0,1-.78,3.36A11.26,11.26,0,0,1,193.72,186.86Z"/><path class="cls-2" d="M189.59,153.89a8.84,8.84,0,0,1,1.71-2.5,6.13,6.13,0,0,1,1.88-1.22,6.48,6.48,0,0,1,2.41-.44,5.37,5.37,0,0,1,2.47.61,5.11,5.11,0,0,1,1.68,1.34,5.44,5.44,0,0,1,1,1.58,5.63,5.63,0,0,1,3.08-1.13,6.48,6.48,0,0,1,3.43.71,6.29,6.29,0,0,1,2.1,1.67,7.05,7.05,0,0,1,1.24,2.26,6.48,6.48,0,0,1,.27,2.67,9.57,9.57,0,0,1-1.09,3.36l-3.86,7.66-19.66-9.89Zm6.13,6.71,1.34-2.67a4,4,0,0,0,.48-1.45,2.78,2.78,0,0,0-.12-1,2.53,2.53,0,0,0-.45-.73,2,2,0,0,0-.68-.54,2.19,2.19,0,0,0-.83-.23,2.39,2.39,0,0,0-.85.09,2.74,2.74,0,0,0-.89.5,4.07,4.07,0,0,0-.88,1.25l-1.34,2.67Zm10.61.59a4.81,4.81,0,0,0,.55-1.7,2.86,2.86,0,0,0-1.59-2.88,2.87,2.87,0,0,0-2.15-.2,2.84,2.84,0,0,0-1.12.64,4.92,4.92,0,0,0-1,1.45l-1.9,3.79,5.33,2.69Z"/><path class="cls-2" d="M32.61,77.84l4.1,2,3-6.07,3.39,1.65-3,6.08L49,85.83l-1.86,3.81L27.36,80l5.78-11.87,3.4,1.65Z"/><path class="cls-2" d="M43.52,59.94l3.56,2.85,4.23-5.27,2.94,2.36L50,65.15,54.8,69l5.81-7.24,2.94,2.36L55.09,74.66,37.93,60.88l8.26-10.29L49.13,53Z"/><path class="cls-2" d="M53.12,43.88l3.32-2.64L67.77,55.53,75,49.77l2.34,2.95-10.59,8.4Z"/><path class="cls-2" d="M71,31.32l3.75-2L85.06,48.73l-3.74,2Z"/><path class="cls-2" d="M97.29,31.69l10.61,9.12-4.68,1.36-7.47-6.53L93,45.16l-4.67,1.36,4-13.39-9.27-8,4.68-1.36,6.16,5.45,2.29-7.91,4.68-1.36Z"/><path class="cls-2" d="M111.39,35a7.65,7.65,0,0,0,2.37,1.64,6.23,6.23,0,0,0,2.9.58,3.32,3.32,0,0,0,2.28-.87,2.51,2.51,0,0,0,.82-2A2.27,2.27,0,0,0,119,32.6a7.07,7.07,0,0,0-1.78-1.08,21.19,21.19,0,0,0-2.31-.85,12.93,12.93,0,0,1-2.38-1,7.42,7.42,0,0,1-2.27-1.86,4.83,4.83,0,0,1-1-3,5.34,5.34,0,0,1,.53-2.65,6.41,6.41,0,0,1,1.56-2,7.11,7.11,0,0,1,2.26-1.3,9.29,9.29,0,0,1,2.67-.51,11.8,11.8,0,0,1,3.27.33,10.32,10.32,0,0,1,3.19,1.5l-2.08,3.23a5.19,5.19,0,0,0-1.72-1,5.58,5.58,0,0,0-2.14-.33,5,5,0,0,0-1.2.19,4,4,0,0,0-1.09.46,2.3,2.3,0,0,0-.75.77,1.88,1.88,0,0,0-.26,1.09,1.73,1.73,0,0,0,.81,1.42,8.8,8.8,0,0,0,1.92,1l2.47.89a12.28,12.28,0,0,1,2.49,1.23,7,7,0,0,1,2,1.94,6.4,6.4,0,0,1,.36,5.74,6.53,6.53,0,0,1-1.56,2.14,7.58,7.58,0,0,1-2.32,1.44,8,8,0,0,1-2.8.59,10.51,10.51,0,0,1-4.28-.7,13,13,0,0,1-3.8-2.29Z"/><path class="cls-2" d="M145.58,21.54l-.66,3.71-5.73-1L136,42.17l-4.18-.74L135,23.48l-5.72-1,.67-3.71Z"/><path class="cls-2" d="M148,33.27a11.74,11.74,0,0,1,2.65-3.63,10.86,10.86,0,0,1,3.68-2.21,11.44,11.44,0,0,1,4.32-.63,12.56,12.56,0,0,1,8.39,4,11.51,11.51,0,0,1,2.24,3.75,10.66,10.66,0,0,1,.58,4.25,12.1,12.1,0,0,1-3.8,8A10.69,10.69,0,0,1,162.37,49a11.3,11.3,0,0,1-4.32.62,11.67,11.67,0,0,1-4.59-1.19,11.81,11.81,0,0,1-3.81-2.81,11.51,11.51,0,0,1-2.24-3.75,10.66,10.66,0,0,1-.58-4.25A11.63,11.63,0,0,1,148,33.27Zm3.83,1.83A7.82,7.82,0,0,0,151,38a7.73,7.73,0,0,0,.33,2.81,7.27,7.27,0,0,0,1.36,2.44A6.94,6.94,0,0,0,155.09,45a6.73,6.73,0,0,0,2.85.7,6.94,6.94,0,0,0,2.77-.47,7.48,7.48,0,0,0,2.39-1.51,7.88,7.88,0,0,0,2.2-8.11,7.26,7.26,0,0,0-1.37-2.45,7.11,7.11,0,0,0-2.34-1.77,6.86,6.86,0,0,0-2.87-.71,7.1,7.1,0,0,0-2.76.48,7.35,7.35,0,0,0-2.39,1.52A7.69,7.69,0,0,0,151.81,35.1Z"/><path class="cls-2" d="M180.59,37.55l3,3L177,53.49l13.17-6.21,2.1,2.12-6.37,13.1,13-6.41,3,3L181.13,69.41,179,67.28,185.49,54l-13.33,6.32-2.1-2.13Z"/><path class="cls-2" d="M204.89,73l-4,2.09,3.09,6-3.35,1.73-3.1-6L192,79.62l4.25,8.24-3.36,1.73-6.19-12L206.3,67.49l6,11.74L209,81Z"/><path class="cls-1" d="M11.73,119.35a3.56,3.56,0,0,0,1,.74,2.65,2.65,0,0,0,1.23.29,1.46,1.46,0,0,0,1-.33,1.08,1.08,0,0,0,.38-.85,1,1,0,0,0-.29-.74,3.52,3.52,0,0,0-.74-.49,10,10,0,0,0-1-.4,5.72,5.72,0,0,1-1-.47,3.32,3.32,0,0,1-1-.84A2.1,2.1,0,0,1,11,115a2.29,2.29,0,0,1,.27-1.12,2.86,2.86,0,0,1,.7-.84,3.1,3.1,0,0,1,1-.51,3.8,3.8,0,0,1,1.16-.18,5,5,0,0,1,1.39.2,4.39,4.39,0,0,1,1.34.69l-.94,1.35a2.33,2.33,0,0,0-.72-.45,2.62,2.62,0,0,0-.91-.17,2.31,2.31,0,0,0-.52.06,1.64,1.64,0,0,0-.47.18,1,1,0,0,0-.34.32.78.78,0,0,0-.13.46.74.74,0,0,0,.33.62,3.93,3.93,0,0,0,.8.45l1.05.42a5,5,0,0,1,1,.57,2.9,2.9,0,0,1,.81.86,2.38,2.38,0,0,1,.32,1.31,2.43,2.43,0,0,1-.26,1.15,2.66,2.66,0,0,1-.7.89,3.19,3.19,0,0,1-1,.58A3.5,3.5,0,0,1,14,122a4.52,4.52,0,0,1-1.82-.37,5.74,5.74,0,0,1-1.59-1Z"/><path class="cls-1" d="M18.69,112.43h1.82v9.44H18.69Z"/><path class="cls-1" d="M22.67,112.43H24l5.25,6.15v-6.15H31v9.44H29.74l-5.25-6.15v6.15H22.67Z"/><path class="cls-1" d="M37.46,113.92a3,3,0,0,0-1.24.25,3.11,3.11,0,0,0-1,.7,3,3,0,0,0-.66,1,3.29,3.29,0,0,0-.24,1.26,3.18,3.18,0,0,0,.25,1.28,3,3,0,0,0,.68,1,3.09,3.09,0,0,0,1,.68,3.13,3.13,0,0,0,1.27.25,3.07,3.07,0,0,0,1.59-.38,3.76,3.76,0,0,0,1.08-.92l1.25,1.12a4.73,4.73,0,0,1-1.64,1.3,5.21,5.21,0,0,1-2.32.5,5.12,5.12,0,0,1-2-.38,4.86,4.86,0,0,1-1.58-1,4.68,4.68,0,0,1-1-1.54,5,5,0,0,1-.37-1.9,4.84,4.84,0,0,1,.37-1.9,4.63,4.63,0,0,1,1-1.54,4.71,4.71,0,0,1,1.57-1,5.3,5.3,0,0,1,2-.38,5,5,0,0,1,1.93.36,4.82,4.82,0,0,1,1.52,1l-1.17,1.24a3.44,3.44,0,0,0-1-.7A3,3,0,0,0,37.46,113.92Z"/><path class="cls-1" d="M44.63,114.05v2h2.9v1.61h-2.9v2.63h4v1.62H42.81v-9.44h5.66v1.62Z"/><path class="cls-1" d="M194.55,113.78l2.29-1.35h1.28v9.44H196.3v-7.33l-1.75,1Z"/><path class="cls-1" d="M201.72,121.87l1.78-3h-.12a3.35,3.35,0,0,1-2.33-.91,3.26,3.26,0,0,1-1-2.34,3.17,3.17,0,0,1,.27-1.29,3.5,3.5,0,0,1,.72-1,3.57,3.57,0,0,1,1.07-.71,3.35,3.35,0,0,1,1.3-.26,3.76,3.76,0,0,1,1.28.23,3.48,3.48,0,0,1,1.1.65,3,3,0,0,1,1.07,2.34,3.17,3.17,0,0,1-.28,1.33,10.16,10.16,0,0,1-.65,1.27l-2.23,3.75Zm2.84-4.85a5.34,5.34,0,0,0,.38-.65,2,2,0,0,0,.19-.85,1.52,1.52,0,0,0-.14-.63,1.8,1.8,0,0,0-.35-.5,1.68,1.68,0,0,0-.54-.35,1.77,1.77,0,0,0-.64-.12,1.62,1.62,0,0,0-.64.12,1.57,1.57,0,0,0-.51.36,1.54,1.54,0,0,0-.33.52,1.72,1.72,0,0,0-.11.64,1.72,1.72,0,0,0,.46,1.18,1.64,1.64,0,0,0,.53.37,1.73,1.73,0,0,0,.69.13A2.42,2.42,0,0,0,204.56,117Z"/><path class="cls-1" d="M213.75,112.43v5.66h1.55v1.62h-1.55v2.16h-1.82v-2.16h-4.38v-1.08l4.92-6.2Zm-1.82,5.66v-2.21l-1.76,2.21Z"/><path class="cls-1" d="M217.35,119.63a2.57,2.57,0,0,0,.72.54,2,2,0,0,0,.89.21,1.64,1.64,0,0,0,1.14-.43,1.75,1.75,0,0,0,.38-.54,1.64,1.64,0,0,0,.14-.67,1.62,1.62,0,0,0-.58-1.28,1.38,1.38,0,0,0-.52-.28,1.79,1.79,0,0,0-.62-.1,2.28,2.28,0,0,0-.72.13,2.06,2.06,0,0,0-.67.39l-1.13-.17.6-5h5v1.62h-3.5l-.15,1.48a3.8,3.8,0,0,1,.72-.06,4.45,4.45,0,0,1,1.13.15,2.83,2.83,0,0,1,1.07.56,3,3,0,0,1,.88,1.12,3.37,3.37,0,0,1,.32,1.44,2.9,2.9,0,0,1-.28,1.29,3.19,3.19,0,0,1-.74,1,3.35,3.35,0,0,1-1.11.69A3.56,3.56,0,0,1,219,122a3.9,3.9,0,0,1-2.85-1.21Z"/><path class="cls-2" d="M119.72,185.53a66.3,66.3,0,1,1,66.3-66.3A66.38,66.38,0,0,1,119.72,185.53Zm0-127.66a61.36,61.36,0,1,0,61.36,61.36A61.43,61.43,0,0,0,119.72,57.87Z"/><path class="cls-2" d="M119.72,237.47A118.24,118.24,0,1,1,238,119.23,118.37,118.37,0,0,1,119.72,237.47Zm0-231.53A113.29,113.29,0,1,0,233,119.23,113.42,113.42,0,0,0,119.72,5.94Z"/></g></svg>